{
.appVersion = "3151";
.formatVersion = 3;
date = "2023-12-10 12:24:40 +0000";
familyName = "Wittgenstein-Italic";
fontMaster = (
{
id = m01;
metricValues = (
{
over = 16;
pos = 950;
},
{
over = 16;
pos = 700;
},
{
over = 16;
pos = 500;
},
{
over = -16;
},
{
over = -16;
pos = -300;
},
{
over = -16;
pos = 11;
}
);
name = Regular;
userData = {
GSCornerRadius = 222;
};
}
);
glyphs = (
{
glyphname = A;
lastChange = "2023-12-29 21:36:44 +0000";
layers = (
{
layerId = m01;
shapes = (
{
closed = 1;
nodes = (
(124,50,l),
(494,700,l),
(439,700,l),
(69,50,l)
);
},
{
closed = 1;
nodes = (
(208,0,l),
(212,19,l),
(124,50,l),
(69,50,l),
(-28,20,l),
(-32,0,l)
);
},
{
closed = 1;
nodes = (
(737,0,l),
(741,19,l),
(653,50,l),
(554,50,l),
(457,20,l),
(453,0,l)
);
},
{
closed = 1;
nodes = (
(547,241,l),
(555,281,l),
(209,281,l),
(201,241,l)
);
},
{
closed = 1;
nodes = (
(653,50,l),
(542,720,l),
(439,700,l),
(554,50,l)
);
}
);
width = 785;
}
);
unicode = 65;
},
{
glyphname = AE;
lastChange = "2023-12-29 21:36:44 +0000";
layers = (
{
layerId = m01;
shapes = (
{
closed = 1;
nodes = (
(826,0,l),
(899,197,l),
(882,204,l),
(771,50,l),
(485,50,l),
(541,341,l),
(717,341,l),
(717,339,l),
(730,245,l),
(749,245,l),
(793,475,l),
(773,475,l),
(726,384,l),
(725,381,l),
(549,381,l),
(601,650,l),
(892,650,l),
(903,520,l),
(924,520,l),
(959,700,l),
(516,700,l),
(380,0,l)
);
},
{
closed = 1;
nodes = (
(184,0,l),
(188,19,l),
(100,50,l),
(45,50,l),
(-52,20,l),
(-56,0,l)
);
},
{
closed = 1;
nodes = (
(487,211,l),
(495,251,l),
(199,251,l),
(191,211,l)
);
},
{
closed = 1;
nodes = (
(100,50,l),
(570,700,l),
(517,700,l),
(45,50,l)
);
}
);
width = 941;
}
);
unicode = 198;
},
{
glyphname = B;
lastChange = "2023-12-29 21:36:44 +0000";
layers = (
{
layerId = m01;
shapes = (
{
closed = 1;
nodes = (
(182,50,l),
(298,650,l),
(203,650,l),
(87,50,l)
);
},
{
closed = 1;
nodes = (
(276,0,l),
(316,50,l),
(87,50,l),
(-10,20,l),
(-14,0,l)
);
},
{
closed = 1;
nodes = (
(447,0,o),
(569,79,o),
(594,205,cs),
(615,313,o),
(532,381,o),
(380,381,c),
(342,341,l),
(445,341,o),
(498,278,o),
(478,177,cs),
(463,99,o),
(401,50,o),
(316,50,c),
(276,0,l)
);
},
{
closed = 1;
nodes = (
(342,341,l),
(380,381,l),
(216,381,l),
(208,341,l)
);
},
{
closed = 1;
nodes = (
(402,650,l),
(442,700,l),
(122,700,l),
(118,680,l),
(203,650,l)
);
},
{
closed = 1;
nodes = (
(481,341,o),
(596,422,o),
(618,537,cs),
(637,632,o),
(564,700,o),
(442,700,c),
(402,650,l),
(477,650,o),
(519,590,o),
(502,505,cs),
(488,432,o),
(437,381,o),
(380,381,c),
(342,341,l)
);
}
);
width = 660;
}
);
unicode = 66;
},
{
glyphname = C;
lastChange = "2023-12-29 21:36:44 +0000";
layers = (
{
layerId = m01;
shapes = (
{
closed = 1;
nodes = (
(364,24,l),
(214,24,o),
(139,186,o),
(184,415,cs),
(213,568,o),
(323,676,o),
(450,676,c),
(478,715,l),
(276,713,o),
(103,561,o),
(61,347,cs),
(20,135,o),
(134,-15,o),
(336,-15,c)
);
},
{
closed = 1;
nodes = (
(402,-15,o),
(506,13,o),
(586,52,c),
(615,200,l),
(577,200,l),
(557,97,o),
(469,24,o),
(364,24,c),
(336,-15,l)
);
},
{
closed = 1;
nodes = (
(673,500,l),
(702,648,l),
(638,687,o),
(545,715,o),
(478,715,c),
(450,676,l),
(560,676,o),
(651,582,o),
(635,500,c)
);
}
);
width = 700;
}
);
unicode = 67;
},
{
glyphname = D;
lastChange = "2023-12-29 21:36:44 +0000";
layers = (
{
layerId = m01;
shapes = (
{
closed = 1;
nodes = (
(512,0,o),
(683,160,o),
(727,385,cs),
(763,569,o),
(660,700,o),
(480,700,c),
(440,650,l),
(574,650,o),
(644,523,o),
(609,344,cs),
(575,172,o),
(470,50,o),
(354,50,c),
(314,0,l)
);
},
{
closed = 1;
nodes = (
(314,0,l),
(354,50,l),
(85,50,l),
(-12,20,l),
(-16,0,l)
);
},
{
closed = 1;
nodes = (
(180,50,l),
(296,650,l),
(201,650,l),
(85,50,l)
);
},
{
closed = 1;
nodes = (
(440,650,l),
(480,700,l),
(120,700,l),
(116,680,l),
(201,650,l)
);
}
);
width = 754;
}
);
unicode = 68;
},
{
glyphname = Eth;
lastChange = "2023-12-29 21:36:44 +0000";
layers = (
{
layerId = m01;
shapes = (
{
closed = 1;
nodes = (
(522,0,o),
(693,160,o),
(737,385,cs),
(773,569,o),
(670,700,o),
(490,700,c),
(450,650,l),
(584,650,o),
(654,523,o),
(619,344,cs),
(585,172,o),
(480,50,o),
(364,50,c),
(324,0,l)
);
},
{
closed = 1;
nodes = (
(324,0,l),
(364,50,l),
(95,50,l),
(-2,20,l),
(-6,0,l)
);
},
{
closed = 1;
nodes = (
(190,50,l),
(306,650,l),
(211,650,l),
(95,50,l)
);
},
{
closed = 1;
nodes = (
(379,337,l),
(388,379,l),
(68,379,l),
(59,337,l)
);
},
{
closed = 1;
nodes = (
(450,650,l),
(490,700,l),
(130,700,l),
(126,680,l),
(211,650,l)
);
}
);
width = 754;
}
);
unicode = 208;
},
{
glyphname = E;
lastChange = "2023-12-29 21:36:44 +0000";
layers = (
{
layerId = m01;
shapes = (
{
closed = 1;
nodes = (
(180,50,l),
(296,650,l),
(201,650,l),
(85,50,l)
);
},
{
closed = 1;
nodes = (
(456,0,l),
(466,50,l),
(85,50,l),
(-12,20,l),
(-16,0,l)
);
},
{
closed = 1;
nodes = (
(521,0,l),
(594,197,l),
(577,204,l),
(466,50,l),
(456,0,l)
);
},
{
closed = 1;
nodes = (
(462,341,l),
(470,381,l),
(214,381,l),
(206,341,l)
);
},
{
closed = 1;
nodes = (
(444,245,l),
(488,475,l),
(468,475,l),
(421,384,l),
(412,339,l),
(425,245,l)
);
},
{
closed = 1;
nodes = (
(587,650,l),
(597,700,l),
(120,700,l),
(116,680,l),
(201,650,l)
);
},
{
closed = 1;
nodes = (
(619,520,l),
(654,700,l),
(597,700,l),
(587,650,l),
(598,520,l)
);
}
);
width = 649;
}
);
unicode = 69;
},
{
glyphname = Schwa;
lastChange = "2023-12-29 21:36:44 +0000";
layers = (
{
layerId = m01;
shapes = (
{
closed = 1;
nodes = (
(364,-14,o),
(506,145,o),
(551,370,cs),
(592,570,o),
(513,712,o),
(359,712,cs),
(275,712,o),
(172,659,o),
(113,585,c),
(145,566,l),
(191,609,o),
(259,640,o),
(310,640,cs),
(429,640,o),
(487,508,o),
(451,322,c),
(54,322,l),
(1,125,o),
(65,-14,o),
(208,-14,cs)
);
},
{
closed = 1;
nodes = (
(159,29,o),
(108,136,o),
(130,288,c),
(125,283,ls),
(122,280,o),
(186,280,o),
(280,283,cs),
(447,288,l),
(418,136,o),
(338,29,o),
(254,29,cs)
);
}
);
width = 600;
}
);
unicode = 399;
},
{
glyphname = F;
lastChange = "2023-12-29 21:36:44 +0000";
layers = (
{
layerId = m01;
shapes = (
{
closed = 1;
nodes = (
(180,50,l),
(296,650,l),
(201,650,l),
(85,50,l)
);
},
{
closed = 1;
nodes = (
(284,0,l),
(288,19,l),
(180,50,l),
(85,50,l),
(-12,20,l),
(-16,0,l)
);
},
{
closed = 1;
nodes = (
(462,341,l),
(470,381,l),
(214,381,l),
(206,341,l)
);
},
{
closed = 1;
nodes = (
(444,245,l),
(488,475,l),
(468,475,l),
(421,384,l),
(412,339,l),
(425,245,l)
);
},
{
closed = 1;
nodes = (
(587,650,l),
(597,700,l),
(120,700,l),
(116,680,l),
(201,650,l)
);
},
{
closed = 1;
nodes = (
(619,520,l),
(654,700,l),
(597,700,l),
(587,650,l),
(598,520,l)
);
}
);
width = 597;
}
);
unicode = 70;
},
{
glyphname = G;
lastChange = "2023-12-29 21:36:44 +0000";
layers = (
{
layerId = m01;
shapes = (
{
closed = 1;
nodes = (
(377,24,l),
(215,24,o),
(132,186,o),
(177,415,cs),
(206,568,o),
(325,676,o),
(463,676,c),
(491,715,l),
(277,713,o),
(96,561,o),
(54,347,cs),
(13,135,o),
(135,-15,o),
(349,-15,c)
);
},
{
closed = 1;
nodes = (
(435,-15,o),
(552,14,o),
(629,54,c),
(648,150,l),
(604,160,l),
(555,80,o),
(461,24,o),
(377,24,c),
(349,-15,l)
);
},
{
closed = 1;
nodes = (
(629,54,l),
(668,250,l),
(573,250,l),
(534,54,l)
);
},
{
closed = 1;
nodes = (
(668,250,l),
(738,281,l),
(741,300,l),
(451,300,l),
(447,280,l),
(573,250,l)
);
},
{
closed = 1;
nodes = (
(686,500,l),
(715,648,l),
(651,687,o),
(557,715,o),
(491,715,c),
(463,676,l),
(591,676,o),
(668,603,o),
(648,500,c)
);
}
);
width = 737;
}
);
unicode = 71;
},
{
glyphname = H;
lastChange = "2023-12-29 21:36:44 +0000";
layers = (
{
layerId = m01;
shapes = (
{
closed = 1;
nodes = (
(661,50,l),
(777,650,l),
(682,650,l),
(566,50,l)
);
},
{
closed = 1;
nodes = (
(260,0,l),
(264,19,l),
(176,50,l),
(81,50,l),
(-16,20,l),
(-20,0,l)
);
},
{
closed = 1;
nodes = (
(176,50,l),
(292,650,l),
(197,650,l),
(81,50,l)
);
},
{
closed = 1;
nodes = (
(745,0,l),
(749,19,l),
(661,50,l),
(566,50,l),
(469,20,l),
(465,0,l)
);
},
{
closed = 1;
nodes = (
(666,335,l),
(674,375,l),
(188,375,l),
(180,335,l)
);
},
{
closed = 1;
nodes = (
(292,650,l),
(392,681,l),
(396,700,l),
(116,700,l),
(112,680,l),
(197,650,l)
);
},
{
closed = 1;
nodes = (
(777,650,l),
(877,681,l),
(881,700,l),
(601,700,l),
(597,680,l),
(682,650,l)
);
}
);
width = 821;
}
);
unicode = 72;
},
{
glyphname = Hbar;
lastChange = "2023-12-29 21:36:44 +0000";
layers = (
{
layerId = m01;
shapes = (
{
closed = 1;
nodes = (
(641,50,l),
(757,650,l),
(662,650,l),
(546,50,l)
);
},
{
closed = 1;
nodes = (
(240,0,l),
(244,19,l),
(156,50,l),
(61,50,l),
(-36,20,l),
(-40,0,l)
);
},
{
closed = 1;
nodes = (
(156,50,l),
(272,650,l),
(177,650,l),
(61,50,l)
);
},
{
closed = 1;
nodes = (
(725,0,l),
(729,19,l),
(641,50,l),
(546,50,l),
(449,20,l),
(445,0,l)
);
},
{
closed = 1;
nodes = (
(646,335,l),
(654,375,l),
(168,375,l),
(160,335,l)
);
},
{
closed = 1;
nodes = (
(272,650,l),
(372,681,l),
(376,700,l),
(96,700,l),
(92,680,l),
(177,650,l)
);
},
{
closed = 1;
nodes = (
(798,519,l),
(806,559,l),
(88,559,l),
(80,519,l)
);
},
{
closed = 1;
nodes = (
(757,650,l),
(857,681,l),
(861,700,l),
(581,700,l),
(577,680,l),
(662,650,l)
);
}
);
width = 821;
}
);
unicode = 294;
},
{
glyphname = I;
lastChange = "2023-12-29 21:36:44 +0000";
layers = (
{
layerId = m01;
shapes = (
{
closed = 1;
nodes = (
(176,50,l),
(292,650,l),
(197,650,l),
(81,50,l)
);
},
{
closed = 1;
nodes = (
(260,0,l),
(264,19,l),
(176,50,l),
(81,50,l),
(-16,20,l),
(-20,0,l)
);
},
{
closed = 1;
nodes = (
(292,650,l),
(392,681,l),
(396,700,l),
(116,700,l),
(112,680,l),
(197,650,l)
);
}
);
width = 336;
}
);
unicode = 73;
},
{
glyphname = J;
lastChange = "2023-12-29 21:36:44 +0000";
layers = (
{
layerId = m01;
shapes = (
{
closed = 1;
nodes = (
(186,50,l),
(303,650,l),
(208,650,l),
(91,50,l)
);
},
{
closed = 1;
nodes = (
(82,-131,o),
(172,-22,o),
(186,50,c),
(91,50,l),
(91,49,ls),
(72,-52,o),
(14,-148,o),
(-47,-184,c),
(-32,-214,l)
);
},
{
closed = 1;
nodes = (
(303,650,l),
(403,681,l),
(407,700,l),
(127,700,l),
(123,680,l),
(208,650,l)
);
}
);
width = 356;
}
);
unicode = 74;
},
{
glyphname = K;
lastChange = "2023-12-29 21:36:44 +0000";
layers = (
{
layerId = m01;
shapes = (
{
closed = 1;
nodes = (
(670,650,l),
(597,661,l),
(191,310,l),
(215,277,l)
);
},
{
closed = 1;
nodes = (
(250,0,l),
(254,19,l),
(176,50,l),
(81,50,l),
(-16,20,l),
(-20,0,l)
);
},
{
closed = 1;
nodes = (
(176,50,l),
(292,650,l),
(197,650,l),
(81,50,l)
);
},
{
closed = 1;
nodes = (
(658,0,l),
(662,19,l),
(584,50,l),
(368,409,l),
(268,356,l),
(477,0,l)
);
},
{
closed = 1;
nodes = (
(292,650,l),
(392,681,l),
(396,700,l),
(116,700,l),
(112,680,l),
(197,650,l)
);
},
{
closed = 1;
nodes = (
(780,681,l),
(784,700,l),
(537,700,l),
(533,680,l),
(597,661,l),
(670,650,l)
);
}
);
width = 706;
}
);
unicode = 75;
},
{
glyphname = L;
lastChange = "2023-12-29 21:36:44 +0000";
layers = (
{
layerId = m01;
shapes = (
{
closed = 1;
nodes = (
(176,50,l),
(292,650,l),
(197,650,l),
(81,50,l)
);
},
{
closed = 1;
nodes = (
(452,0,l),
(462,50,l),
(81,50,l),
(-16,20,l),
(-20,0,l)
);
},
{
closed = 1;
nodes = (
(517,0,l),
(590,197,l),
(573,204,l),
(462,50,l),
(452,0,l)
);
},
{
closed = 1;
nodes = (
(292,650,l),
(392,681,l),
(396,700,l),
(116,700,l),
(112,680,l),
(197,650,l)
);
}
);
width = 630;
}
);
unicode = 76;
},
{
glyphname = Lslash;
lastChange = "2023-12-29 21:36:44 +0000";
layers = (
{
layerId = m01;
shapes = (
{
closed = 1;
nodes = (
(146,50,l),
(262,650,l),
(167,650,l),
(51,50,l)
);
},
{
closed = 1;
nodes = (
(422,0,l),
(432,50,l),
(51,50,l),
(-46,20,l),
(-50,0,l)
);
},
{
closed = 1;
nodes = (
(321,414,l),
(309,453,l),
(-3,300,l),
(10,261,l)
);
},
{
closed = 1;
nodes = (
(487,0,l),
(560,197,l),
(543,204,l),
(432,50,l),
(422,0,l)
);
},
{
closed = 1;
nodes = (
(262,650,l),
(362,681,l),
(366,700,l),
(86,700,l),
(82,680,l),
(167,650,l)
);
}
);
width = 600;
}
);
unicode = 321;
},
{
glyphname = M;
lastChange = "2023-12-29 21:36:44 +0000";
layers = (
{
layerId = m01;
shapes = (
{
closed = 1;
nodes = (
(848,700,l),
(796,700,l),
(429,138,l),
(276,700,l),
(181,700,l),
(376,-26,l)
);
},
{
closed = 1;
nodes = (
(192,0,l),
(196,19,l),
(118,50,l),
(73,50,l),
(-24,20,l),
(-28,0,l)
);
},
{
closed = 1;
nodes = (
(118,50,l),
(235,650,l),
(190,650,l),
(73,50,l)
);
},
{
closed = 1;
nodes = (
(839,0,l),
(843,19,l),
(765,50,l),
(670,50,l),
(573,20,l),
(569,0,l)
);
},
{
closed = 1;
nodes = (
(235,650,l),
(245,700,l),
(109,700,l),
(105,683,l),
(190,650,l)
);
},
{
closed = 1;
nodes = (
(765,50,l),
(882,650,l),
(787,650,l),
(670,50,l)
);
},
{
closed = 1;
nodes = (
(882,650,l),
(982,681,l),
(986,700,l),
(798,700,l),
(787,650,l)
);
}
);
width = 926;
}
);
unicode = 77;
},
{
glyphname = N;
lastChange = "2023-12-29 21:36:44 +0000";
layers = (
{
layerId = m01;
shapes = (
{
closed = 1;
nodes = (
(648,127,l),
(278,700,l),
(145,700,l),
(619,-25,l)
);
},
{
closed = 1;
nodes = (
(182,0,l),
(186,19,l),
(98,50,l),
(53,50,l),
(-44,20,l),
(-48,0,l)
);
},
{
closed = 1;
nodes = (
(98,50,l),
(215,650,l),
(170,650,l),
(53,50,l)
);
},
{
closed = 1;
nodes = (
(215,650,l),
(224,700,l),
(88,700,l),
(85,680,l),
(170,650,l)
);
},
{
closed = 1;
nodes = (
(647,120,l),
(750,650,l),
(705,650,l),
(602,120,l)
);
},
{
closed = 1;
nodes = (
(750,650,l),
(850,681,l),
(853,700,l),
(623,700,l),
(620,680,l),
(705,650,l)
);
}
);
width = 781;
}
);
unicode = 78;
},
{
glyphname = O;
lastChange = "2023-12-29 21:36:44 +0000";
layers = (
{
layerId = m01;
shapes = (
{
closed = 1;
nodes = (
(513,-15,o),
(684,139,o),
(726,357,cs),
(767,567,o),
(655,715,o),
(455,715,cs),
(256,715,o),
(86,563,o),
(44,347,cs),
(3,135,o),
(114,-15,o),
(313,-15,cs)
);
},
{
closed = 1;
nodes = (
(180,23,o),
(118,163,o),
(167,415,cs),
(199,583,o),
(291,676,o),
(424,676,cs),
(588,676,o),
(652,537,o),
(604,286,cs),
(571,117,o),
(477,23,o),
(343,23,cs)
);
}
);
width = 750;
}
);
unicode = 79;
},
{
glyphname = Oslash;
lastChange = "2023-12-29 21:36:44 +0000";
layers = (
{
layerId = m01;
shapes = (
{
closed = 1;
nodes = (
(16,-27,l),
(787,726,l),
(733,726,l),
(-38,-27,l)
);
},
{
closed = 1;
nodes = (
(503,-15,o),
(674,139,o),
(716,357,cs),
(757,567,o),
(645,715,o),
(445,715,cs),
(246,715,o),
(77,563,o),
(35,347,cs),
(-7,135,o),
(104,-15,o),
(303,-15,cs)
);
},
{
closed = 1;
nodes = (
(171,23,o),
(108,163,o),
(157,415,cs),
(189,583,o),
(281,676,o),
(414,676,cs),
(578,676,o),
(642,537,o),
(594,286,cs),
(561,117,o),
(468,23,o),
(334,23,cs)
);
}
);
width = 750;
}
);
unicode = 216;
},
{
glyphname = OE;
lastChange = "2023-12-29 21:36:44 +0000";
layers = (
{
layerId = m01;
shapes = (
{
closed = 1;
nodes = (
(503,-15,o),
(674,139,o),
(716,357,cs),
(757,567,o),
(645,715,o),
(445,715,cs),
(246,715,o),
(76,563,o),
(34,347,cs),
(-7,135,o),
(104,-15,o),
(303,-15,cs)
);
},
{
closed = 1;
nodes = (
(170,23,o),
(108,163,o),
(157,415,cs),
(189,583,o),
(281,676,o),
(414,676,cs),
(578,676,o),
(642,537,o),
(594,286,cs),
(561,117,o),
(467,23,o),
(333,23,cs)
);
},
{
closed = 1;
nodes = (
(933,0,l),
(943,50,l),
(562,50,l),
(552,0,l)
);
},
{
closed = 1;
nodes = (
(657,50,l),
(773,650,l),
(678,650,l),
(562,50,l)
);
},
{
closed = 1;
nodes = (
(998,0,l),
(1071,197,l),
(1054,204,l),
(943,50,l),
(933,0,l)
);
},
{
closed = 1;
nodes = (
(939,341,l),
(947,381,l),
(691,381,l),
(683,341,l)
);
},
{
closed = 1;
nodes = (
(921,245,l),
(965,475,l),
(945,475,l),
(898,384,l),
(889,339,l),
(902,245,l)
);
},
{
closed = 1;
nodes = (
(1064,650,l),
(1074,700,l),
(688,700,l),
(678,650,l)
);
},
{
closed = 1;
nodes = (
(1096,520,l),
(1131,700,l),
(1074,700,l),
(1064,650,l),
(1075,520,l)
);
}
);
width = 1146;
}
);
unicode = 338;
},
{
glyphname = P;
lastChange = "2023-12-29 21:36:44 +0000";
layers = (
{
layerId = m01;
shapes = (
{
closed = 1;
nodes = (
(459,300,o),
(583,388,o),
(610,527,cs),
(630,628,o),
(550,700,o),
(416,700,c),
(376,650,l),
(463,650,o),
(517,586,o),
(499,495,cs),
(481,400,o),
(411,340,o),
(326,340,c),
(288,300,l)
);
},
{
closed = 1;
nodes = (
(280,0,l),
(284,20,l),
(186,50,l),
(91,50,l),
(-6,20,l),
(-10,0,l)
);
},
{
closed = 1;
nodes = (
(186,50,l),
(302,650,l),
(207,650,l),
(91,50,l)
);
},
{
closed = 1;
nodes = (
(288,300,l),
(326,340,l),
(212,340,l),
(204,300,l)
);
},
{
closed = 1;
nodes = (
(376,650,l),
(416,700,l),
(126,700,l),
(122,680,l),
(207,650,l)
);
}
);
width = 580;
}
);
unicode = 80;
},
{
glyphname = Thorn;
lastChange = "2023-12-29 21:36:44 +0000";
layers = (
{
layerId = m01;
shapes = (
{
closed = 1;
nodes = (
(401,155,o),
(525,243,o),
(552,382,cs),
(572,483,o),
(492,555,o),
(357,553,c),
(319,508,l),
(405,505,o),
(459,441,o),
(441,350,cs),
(423,255,o),
(353,195,o),
(268,195,c),
(230,155,l)
);
},
{
closed = 1;
nodes = (
(250,0,l),
(254,19,l),
(166,50,l),
(71,50,l),
(-26,20,l),
(-30,0,l)
);
},
{
closed = 1;
nodes = (
(230,155,l),
(268,195,l),
(154,195,l),
(146,155,l)
);
},
{
closed = 1;
nodes = (
(166,50,l),
(282,650,l),
(187,650,l),
(71,50,l)
);
},
{
closed = 1;
nodes = (
(319,508,l),
(357,553,l),
(223,553,l),
(215,508,l)
);
},
{
closed = 1;
nodes = (
(282,650,l),
(382,681,l),
(386,700,l),
(106,700,l),
(102,680,l),
(187,650,l)
);
}
);
width = 600;
}
);
unicode = 222;
},
{
glyphname = Q;
lastChange = "2023-12-29 21:36:44 +0000";
layers = (
{
background = {
shapes = (
{
closed = 1;
nodes = (
(594,715,o),
(735,567,o),
(735,357,cs),
(735,139,o),
(594,-15,o),
(394,-15,cs),
(195,-15,o),
(55,135,o),
(55,347,cs),
(55,563,o),
(195,715,o),
(394,715,cs)
);
},
{
closed = 1;
nodes = (
(238,676,o),
(164,583,o),
(164,415,cs),
(164,163,o),
(254,23,o),
(417,23,cs),
(551,23,o),
(626,117,o),
(626,286,cs),
(626,537,o),
(535,676,o),
(371,676,cs)
);
}
);
};
layerId = m01;
shapes = (
{
closed = 1;
nodes = (
(525,-15,o),
(696,139,o),
(739,357,cs),
(779,567,o),
(667,715,o),
(467,715,cs),
(268,715,o),
(99,563,o),
(57,347,cs),
(15,135,o),
(126,-15,o),
(325,-15,cs)
);
},
{
closed = 1;
nodes = (
(642,-140,l),
(646,-121,l),
(594,-103,ls),
(567,-93,o),
(546,-86,o),
(528,-67,cs),
(450,16,l),
(315,-4,l),
(461,-140,l)
);
},
{
closed = 1;
nodes = (
(193,23,o),
(130,163,o),
(179,415,cs),
(211,583,o),
(304,676,o),
(437,676,cs),
(601,676,o),
(664,537,o),
(616,286,cs),
(583,117,o),
(490,23,o),
(356,23,cs)
);
}
);
width = 750;
}
);
unicode = 81;
},
{
glyphname = R;
lastChange = "2023-12-29 21:36:44 +0000";
layers = (
{
layerId = m01;
shapes = (
{
closed = 1;
nodes = (
(176,50,l),
(292,650,l),
(197,650,l),
(81,50,l)
);
},
{
closed = 1;
nodes = (
(270,0,l),
(274,20,l),
(176,50,l),
(81,50,l),
(-16,20,l),
(-20,0,l)
);
},
{
closed = 1;
nodes = (
(308,300,l),
(346,340,l),
(202,340,l),
(194,300,l)
);
},
{
closed = 1;
nodes = (
(633,0,l),
(637,19,l),
(591,35,ls),
(561,45,o),
(547,63,o),
(534,91,cs),
(417,336,l),
(321,316,l),
(461,0,l)
);
},
{
closed = 1;
nodes = (
(376,650,l),
(416,700,l),
(116,700,l),
(112,680,l),
(197,650,l)
);
},
{
closed = 1;
nodes = (
(459,300,o),
(585,394,o),
(610,527,cs),
(630,628,o),
(550,700,o),
(416,700,c),
(376,650,l),
(463,650,o),
(512,586,o),
(494,495,cs),
(476,404,o),
(415,340,o),
(346,340,c),
(308,300,l)
);
}
);
width = 650;
}
);
unicode = 82;
},
{
glyphname = S;
lastChange = "2023-12-29 21:36:44 +0000";
layers = (
{
layerId = m01;
shapes = (
{
closed = 1;
nodes = (
(352,-16,o),
(461,66,o),
(484,183,cs),
(515,347,o),
(182,442,o),
(208,574,cs),
(220,637,o),
(282,682,o),
(357,682,cs),
(425,682,o),
(477,614,o),
(484,518,c),
(512,518,l),
(540,662,l),
(513,694,o),
(440,716,o),
(363,716,cs),
(234,716,o),
(128,639,o),
(107,529,cs),
(77,375,o),
(419,250,o),
(397,138,cs),
(383,68,o),
(313,18,o),
(227,18,cs),
(149,18,o),
(93,92,o),
(89,197,c),
(60,197,l),
(18,44,l),
(66,9,o),
(150,-16,o),
(221,-16,cs)
);
}
);
width = 548;
}
);
unicode = 83;
},
{
glyphname = Germandbls;
lastChange = "2023-12-29 21:36:44 +0000";
layers = (
{
layerId = m01;
shapes = (
{
closed = 1;
nodes = (
(457,-16,o),
(530,57,o),
(550,160,cs),
(588,355,o),
(375,350,o),
(392,440,cs),
(409,529,o),
(581,509,o),
(628,699,c),
(512,676,l),
(514,531,o),
(349,519,o),
(324,390,cs),
(292,225,o),
(514,230,o),
(497,140,cs),
(482,66,o),
(435,19,o),
(381,19,cs),
(344,19,o),
(313,47,o),
(304,94,cs),
(296,139,l),
(278,139,l),
(251,34,l),
(273,5,o),
(324,-16,o),
(374,-16,cs)
);
},
{
closed = 1;
nodes = (
(152,0,l),
(161,50,l),
(66,50,l),
(-31,20,l),
(-34,0,l)
);
},
{
closed = 1;
nodes = (
(161,50,l),
(278,650,l),
(183,650,l),
(66,50,l)
);
},
{
closed = 1;
nodes = (
(589,650,l),
(629,700,l),
(102,700,l),
(98,680,l),
(183,650,l)
);
}
);
width = 600;
}
);
unicode = 7838;
},
{
glyphname = T;
lastChange = "2023-12-29 21:36:44 +0000";
layers = (
{
background = {
shapes = (
{
closed = 1;
nodes = (
(85,612,ls),
(100,640,o),
(105,657,o),
(105,675,cs),
(105,691,o),
(93,700,o),
(73,700,cs),
(52,700,o),
(36,679,o),
(29,640,cs),
(16,564,ls),
(9,524,o),
(9,502,o),
(15,500,cs),
(21,498,o),
(34,514,o),
(53,551,cs)
);
}
);
};
layerId = m01;
shapes = (
{
closed = 1;
nodes = (
(306,50,l),
(422,650,l),
(327,650,l),
(211,50,l)
);
},
{
closed = 1;
nodes = (
(380,0,l),
(384,19,l),
(306,50,l),
(211,50,l),
(114,20,l),
(110,0,l)
);
},
{
closed = 1;
nodes = (
(55,500,l),
(199,700,l),
(107,700,l),
(34,500,l)
);
},
{
closed = 1;
nodes = (
(650,650,l),
(660,700,l),
(107,700,l),
(97,650,l)
);
},
{
closed = 1;
nodes = (
(655,500,l),
(660,700,l),
(568,700,l),
(634,500,l)
);
}
);
width = 631;
}
);
unicode = 84;
},
{
glyphname = U;
lastChange = "2023-12-29 21:36:44 +0000";
layers = (
{
layerId = m01;
shapes = (
{
closed = 1;
nodes = (
(476,-15,o),
(604,87,o),
(632,230,c),
(578,210,l),
(559,113,o),
(467,44,o),
(355,44,cs),
(244,44,o),
(182,129,o),
(206,250,c),
(107,230,l),
(79,87,o),
(169,-15,o),
(322,-15,cs)
);
},
{
closed = 1;
nodes = (
(206,250,l),
(284,650,l),
(189,650,l),
(107,230,l)
);
},
{
closed = 1;
nodes = (
(284,650,l),
(384,681,l),
(387,700,l),
(107,700,l),
(104,680,l),
(189,650,l)
);
},
{
closed = 1;
nodes = (
(632,230,l),
(714,650,l),
(664,650,l),
(578,210,l)
);
},
{
closed = 1;
nodes = (
(714,650,l),
(814,681,l),
(817,700,l),
(582,700,l),
(579,680,l),
(664,650,l)
);
}
);
width = 746;
}
);
unicode = 85;
},
{
glyphname = V;
lastChange = "2023-12-29 21:36:44 +0000";
layers = (
{
background = {
shapes = (
{
closed = 1;
nodes = (
(71,660,l),
(312,-10,l),
(411,10,l),
(170,660,l)
);
}
);
};
layerId = m01;
shapes = (
{
closed = 1;
nodes = (
(294,0,l),
(662,650,l),
(609,650,l),
(323,144,l),
(224,650,l),
(120,650,l),
(243,-10,l)
);
},
{
closed = 1;
nodes = (
(224,650,l),
(324,681,l),
(328,700,l),
(39,700,l),
(35,680,l),
(120,650,l)
);
},
{
closed = 1;
nodes = (
(662,650,l),
(762,681,l),
(766,700,l),
(528,700,l),
(524,680,l),
(609,650,l)
);
}
);
width = 667;
}
);
unicode = 86;
},
{
glyphname = W;
lastChange = "2023-12-29 21:36:44 +0000";
layers = (
{
background = {
shapes = (
{
closed = 1;
nodes = (
(70,660,l),
(311,-10,l),
(410,10,l),
(169,660,l)
);
},
{
closed = 1;
nodes = (
(427,660,l),
(668,-10,l),
(767,10,l),
(526,660,l)
);
}
);
};
layerId = m01;
shapes = (
{
closed = 1;
nodes = (
(296,0,l),
(753,700,l),
(696,700,l),
(322,137,l),
(236,700,l),
(147,650,l),
(242,-10,l)
);
},
{
closed = 1;
nodes = (
(236,700,l),
(59,700,l),
(55,680,l),
(147,650,l)
);
},
{
closed = 1;
nodes = (
(653,0,l),
(992,650,l),
(935,650,l),
(667,124,l),
(505,700,l),
(417,650,l),
(599,-10,l)
);
},
{
closed = 1;
nodes = (
(505,700,l),
(328,700,l),
(324,680,l),
(417,650,l)
);
},
{
closed = 1;
nodes = (
(723,650,l),
(798,681,l),
(802,700,l),
(577,700,l),
(573,680,l),
(666,650,l)
);
},
{
closed = 1;
nodes = (
(992,650,l),
(1100,681,l),
(1104,700,l),
(847,700,l),
(843,680,l),
(935,650,l)
);
}
);
width = 1005;
}
);
unicode = 87;
},
{
glyphname = X;
lastChange = "2023-12-29 21:36:44 +0000";
layers = (
{
layerId = m01;
shapes = (
{
closed = 1;
nodes = (
(142,50,l),
(349,297,l),
(474,50,l),
(582,50,l),
(436,358,ls),
(408,417,o),
(387,403,o),
(351,361,cs),
(80,50,l)
);
},
{
closed = 1;
nodes = (
(223,0,l),
(227,20,l),
(142,50,l),
(80,50,l),
(-20,19,l),
(-24,0,l)
);
},
{
closed = 1;
nodes = (
(662,0,l),
(666,20,l),
(581,50,l),
(474,50,l),
(374,19,l),
(370,0,l)
);
},
{
closed = 1;
nodes = (
(667,650,l),
(605,650,l),
(403,420,l),
(293,650,l),
(189,650,l),
(319,355,ls),
(344,298,o),
(373,309,o),
(410,352,cs)
);
},
{
closed = 1;
nodes = (
(293,650,l),
(393,681,l),
(397,700,l),
(108,700,l),
(104,680,l),
(189,650,l)
);
},
{
closed = 1;
nodes = (
(667,650,l),
(767,681,l),
(771,700,l),
(524,700,l),
(520,680,l),
(605,650,l)
);
}
);
width = 710;
}
);
unicode = 88;
},
{
glyphname = Y;
lastChange = "2023-12-29 21:36:44 +0000";
layers = (
{
layerId = m01;
shapes = (
{
closed = 1;
nodes = (
(600,650,l),
(538,650,l),
(338,390,l),
(243,650,l),
(129,650,l),
(274,251,l)
);
},
{
closed = 1;
nodes = (
(381,0,l),
(385,19,l),
(297,50,l),
(202,50,l),
(105,20,l),
(101,0,l)
);
},
{
closed = 1;
nodes = (
(297,50,l),
(359,373,l),
(264,373,l),
(202,50,l)
);
},
{
closed = 1;
nodes = (
(243,650,l),
(343,681,l),
(347,700,l),
(48,700,l),
(44,680,l),
(129,650,l)
);
},
{
closed = 1;
nodes = (
(600,650,l),
(700,681,l),
(704,700,l),
(457,700,l),
(453,680,l),
(538,650,l)
);
}
);
width = 606;
}
);
unicode = 89;
},
{
glyphname = Z;
lastChange = "2023-12-29 21:36:44 +0000";
layers = (
{
layerId = m01;
shapes = (
{
closed = 1;
nodes = (
(678,699,l),
(559,700,l),
(-3,20,l),
(93,-1,l)
);
},
{
closed = 1;
nodes = (
(540,0,l),
(550,50,l),
(95,50,l),
(-3,20,l),
(-7,0,l)
);
},
{
closed = 1;
nodes = (
(579,201,l),
(535,211,l),
(475,51,l),
(540,0,l)
);
},
{
closed = 1;
nodes = (
(126,500,l),
(270,700,l),
(178,700,l),
(105,500,l)
);
},
{
closed = 1;
nodes = (
(560,650,l),
(603,700,l),
(181,700,l),
(171,650,l)
);
}
);
width = 620;
}
);
unicode = 90;
},
{
glyphname = a;
lastChange = "2023-12-29 21:36:44 +0000";
layers = (
{
layerId = m01;
shapes = (
{
closed = 1;
nodes = (
(147,286,l),
(168,394,o),
(244,471,o),
(331,471,cs),
(401,471,o),
(450,442,o),
(450,400,cs),
(450,399,l),
(520,460,l),
(478,486,l),
(459,504,o),
(419,516,o),
(381,516,cs),
(213,516,o),
(74,409,o),
(46,258,c)
);
},
{
closed = 1;
nodes = (
(262,-11,o),
(338,22,o),
(392,69,c),
(397,110,l),
(350,65,o),
(293,34,o),
(259,34,cs),
(165,34,o),
(119,138,o),
(147,286,c),
(46,258,l),
(14,100,o),
(82,-11,o),
(209,-11,cs)
);
},
{
closed = 1;
nodes = (
(336,-29,o),
(427,-22,o),
(562,22,c),
(551,54,l),
(483,31,o),
(440,41,o),
(446,77,cs),
(453,112,o),
(525,451,o),
(535,500,c),
(446,500,l),
(446,500,o),
(390,254,o),
(342,6,cs)
);
}
);
width = 587;
}
);
unicode = 97;
},
{
glyphname = ae;
lastChange = "2023-12-29 21:36:44 +0000";
layers = (
{
layerId = m01;
shapes = (
{
closed = 1;
nodes = (
(544,-13,o),
(629,26,o),
(679,80,c),
(662,108,l),
(617,72,o),
(555,47,o),
(512,47,cs),
(420,47,o),
(372,130,o),
(397,262,c),
(721,262,l),
(761,405,o),
(705,517,o),
(582,517,cs),
(448,517,o),
(340,401,o),
(307,237,cs),
(272,61,o),
(340,-13,o),
(471,-13,cs)
);
},
{
closed = 1;
nodes = (
(164,-16,o),
(226,-3,o),
(325,64,c),
(332,115,l),
(239,50,o),
(194,34,o),
(155,34,cs),
(116,34,o),
(84,102,o),
(99,177,cs),
(109,229,o),
(207,260,o),
(343,259,c),
(349,298,l),
(186,298,o),
(24,244,o),
(5,147,cs),
(-11,63,o),
(18,-16,o),
(111,-16,cs)
);
},
{
closed = 1;
nodes = (
(422,391,ls),
(437,464,o),
(383,516,o),
(307,516,cs),
(176,516,o),
(78,456,o),
(61,371,cs),
(55,336,l),
(142,356,l),
(151,391,ls),
(167,445,o),
(217,483,o),
(276,483,cs),
(313,483,o),
(345,437,o),
(332,371,cs),
(315,279,l),
(397,262,l)
);
},
{
closed = 1;
nodes = (
(422,401,o),
(481,478,o),
(542,478,cs),
(610,478,o),
(646,401,o),
(631,298,c),
(636,302,ls),
(638,304,o),
(586,304,o),
(528,302,cs),
(402,298,l)
);
}
);
width = 765;
}
);
unicode = 230;
},
{
glyphname = b;
lastChange = "2023-12-29 21:36:44 +0000";
layers = (
{
background = {
shapes = (
{
closed = 1;
nodes = (
(115,44,l),
(246,718,l),
(263,794,l),
(254,800,l),
(57,745,l),
(54,729,l),
(156,717,l),
(25,44,l)
);
}
);
};
layerId = m01;
shapes = (
{
closed = 1;
nodes = (
(107,0,l),
(144,189,o),
(235,653,o),
(254,752,cs),
(273,851,o),
(101,758,o),
(34,736,c),
(45,704,l),
(112,726,o),
(157,716,o),
(150,681,cs),
(143,646,o),
(28,49,o),
(18,0,c)
);
},
{
closed = 1;
nodes = (
(329,-12,o),
(471,111,o),
(505,286,c),
(408,258,l),
(382,126,o),
(301,28,o),
(214,28,cs),
(171,28,o),
(132,69,o),
(97,104,cs),
(96,105,l),
(26,44,l),
(68,18,l),
(89,0,o),
(130,-12,o),
(165,-12,cs)
);
},
{
closed = 1;
nodes = (
(505,286,l),
(531,420,o),
(461,515,o),
(338,515,cs),
(285,515,o),
(209,482,o),
(154,435,c),
(147,385,l),
(195,430,o),
(254,469,o),
(288,469,cs),
(382,469,o),
(432,382,o),
(408,258,c)
);
}
);
width = 543;
}
);
unicode = 98;
},
{
glyphname = c;
lastChange = "2023-12-29 21:36:44 +0000";
layers = (
{
background = {
shapes = (
{
closed = 1;
nodes = (
(140,381,o),
(179,462,o),
(237,482,cs),
(256,489,o),
(268,492,o),
(275,502,cs),
(280,510,o),
(220,517,o),
(168,485,cs),
(93,440,o),
(46,350,o),
(45,237,cs),
(44,91,o),
(136,-13,o),
(267,-13,cs),
(315,-13,o),
(367,7,o),
(409,38,cs),
(443,64,o),
(451,88,o),
(444,95,cs),
(436,103,o),
(420,89,o),
(384,70,cs),
(357,55,o),
(326,47,o),
(297,47,cs),
(205,47,o),
(140,140,o),
(140,272,cs)
);
},
{
closed = 1;
nodes = (
(269,492,o),
(293,491,o),
(330,467,cs),
(351,453,o),
(369,432,o),
(381,406,cs),
(398,370,o),
(403,351,o),
(413,351,cs),
(422,351,o),
(428,374,o),
(428,417,cs),
(428,424,ls),
(428,459,o),
(418,487,o),
(386,500,cs),
(372,505,o),
(356,510,o),
(338,513,cs),
(301,519,o),
(282,513,o),
(275,502,cs)
);
}
);
};
layerId = m01;
shapes = (
{
closed = 1;
nodes = (
(280,-13,o),
(363,25,o),
(420,79,c),
(408,105,l),
(360,72,o),
(300,48,o),
(264,48,cs),
(168,48,o),
(114,143,o),
(140,277,cs),
(164,401,o),
(234,486,o),
(311,489,cs),
(372,491,o),
(410,416,o),
(408,339,c),
(449,339,l),
(478,490,l),
(432,490,o),
(382,518,o),
(331,516,cs),
(188,510,o),
(74,399,o),
(42,234,cs),
(13,89,o),
(87,-13,o),
(219,-13,cs)
);
}
);
width = 499;
}
);
unicode = 99;
},
{
glyphname = d;
lastChange = "2023-12-29 21:36:44 +0000";
layers = (
{
background = {
shapes = (
{
closed = 1;
nodes = (
(543,28,l),
(546,44,l),
(441,57,l),
(573,735,l),
(593,811,l),
(584,817,l),
(387,762,l),
(384,746,l),
(486,734,l),
(356,65,l),
(350,-1,l),
(359,-7,l)
);
}
);
};
layerId = m01;
shapes = (
{
closed = 1;
nodes = (
(246,-16,o),
(328,27,o),
(398,88,c),
(409,102,l),
(385,123,l),
(381,121,o),
(377,115,o),
(377,115,c),
(332,69,o),
(278,37,o),
(249,37,cs),
(154,37,o),
(109,128,o),
(137,271,cs),
(160,388,o),
(230,481,o),
(311,481,cs),
(346,481,o),
(392,469,o),
(423,451,cs),
(442,439,o),
(456,427,o),
(455,420,cs),
(454,415,l),
(492,451,l),
(484,455,l),
(452,491,o),
(389,516,o),
(332,516,cs),
(186,516,o),
(65,399,o),
(35,248,cs),
(4,88,o),
(70,-16,o),
(199,-16,cs)
);
},
{
closed = 1;
nodes = (
(495,-16,o),
(531,5,o),
(582,34,c),
(566,65,l),
(515,36,o),
(439,35,o),
(450,96,cs),
(456,130,o),
(558,656,o),
(577,755,cs),
(596,854,o),
(424,761,o),
(357,739,c),
(368,707,l),
(435,729,o),
(480,719,o),
(473,684,cs),
(466,649,o),
(365,121,o),
(355,72,cs),
(345,23,o),
(373,-16,o),
(434,-16,cs)
);
}
);
width = 582;
}
);
unicode = 100;
},
{
glyphname = eth;
lastChange = "2023-12-29 21:36:44 +0000";
layers = (
{
layerId = m01;
shapes = (
{
closed = 1;
nodes = (
(357,-15,o),
(469,94,o),
(503,267,cs),
(528,396,o),
(453,477,o),
(308,477,cs),
(161,477,o),
(50,384,o),
(21,237,cs),
(-9,82,o),
(65,-15,o),
(212,-15,cs)
);
},
{
closed = 1;
nodes = (
(139,20,o),
(100,115,o),
(129,265,cs),
(150,374,o),
(211,442,o),
(288,442,cs),
(378,442,o),
(420,363,o),
(395,236,cs),
(369,103,o),
(306,20,o),
(232,20,cs)
);
},
{
closed = 1;
nodes = (
(503,267,l),
(562,569,o),
(459,699,o),
(233,699,c),
(226,663,l),
(360,663,o),
(453,535,o),
(395,236,c)
);
},
{
closed = 1;
nodes = (
(479,704,l),
(458,733,l),
(259,581,l),
(279,550,l)
);
}
);
width = 600;
}
);
unicode = 240;
},
{
glyphname = dcroat;
lastChange = "2023-12-29 21:36:44 +0000";
layers = (
{
layerId = m01;
shapes = (
{
closed = 1;
nodes = (
(216,-16,o),
(298,27,o),
(368,88,c),
(379,102,l),
(355,123,l),
(351,121,o),
(347,115,o),
(347,115,c),
(302,69,o),
(248,37,o),
(219,37,cs),
(124,37,o),
(79,128,o),
(107,271,cs),
(130,388,o),
(200,481,o),
(281,481,cs),
(316,481,o),
(362,469,o),
(393,451,cs),
(412,439,o),
(426,427,o),
(425,420,cs),
(424,415,l),
(462,451,l),
(454,455,l),
(422,491,o),
(359,516,o),
(302,516,cs),
(156,516,o),
(35,399,o),
(5,248,cs),
(-26,88,o),
(40,-16,o),
(169,-16,cs)
);
},
{
closed = 1;
nodes = (
(513,28,l),
(516,44,l),
(411,57,l),
(543,735,l),
(563,811,l),
(554,817,l),
(357,762,l),
(354,746,l),
(456,734,l),
(326,65,l),
(320,-1,l),
(329,-7,l)
);
},
{
closed = 1;
nodes = (
(624,599,l),
(631,639,l),
(283,639,l),
(276,599,l)
);
}
);
width = 600;
}
);
unicode = 273;
},
{
glyphname = e;
lastChange = "2023-12-29 21:36:45 +0000";
layers = (
{
background = {
shapes = (
{
closed = 1;
nodes = (
(422,517,o),
(519,416,o),
(519,262,cs),
(519,91,o),
(422,-15,o),
(283,-15,cs),
(136,-15,o),
(43,91,o),
(43,262,cs),
(43,416,o),
(136,517,o),
(283,517,cs)
);
},
{
closed = 1;
nodes = (
(195,483,o),
(144,426,o),
(144,290,cs),
(144,101,o),
(204,18,o),
(296,18,cs),
(365,18,o),
(418,81,o),
(418,231,cs),
(418,407,o),
(357,483,o),
(270,483,cs)
);
},
{
closed = 1;
nodes = (
(140,517,o),
(46,401,o),
(45,237,cs),
(44,91,o),
(137,-13,o),
(267,-13,cs),
(315,-13,o),
(367,7,o),
(409,38,cs),
(443,64,o),
(451,88,o),
(444,95,cs),
(436,103,o),
(420,89,o),
(384,70,cs),
(357,55,o),
(326,47,o),
(297,47,cs),
(205,47,o),
(140,143,o),
(140,272,c),
(464,272,l),
(477,426,o),
(398,517,o),
(275,517,cs)
);
},
{
closed = 1;
nodes = (
(138,411,o),
(182,489,o),
(243,489,cs),
(311,489,o),
(362,411,o),
(367,308,c),
(371,312,ls),
(373,314,o),
(321,314,o),
(263,312,cs),
(138,308,l)
);
}
);
};
layerId = m01;
shapes = (
{
closed = 1;
nodes = (
(288,-13,o),
(374,26,o),
(424,80,c),
(407,108,l),
(362,72,o),
(300,47,o),
(257,47,cs),
(165,47,o),
(118,140,o),
(144,272,c),
(268,272,ls),
(328,272,o),
(498,349,o),
(459,450,cs),
(446,483,o),
(397,517,o),
(327,517,cs),
(193,517,o),
(75,401,o),
(42,237,cs),
(13,91,o),
(84,-13,o),
(215,-13,cs)
);
},
{
closed = 1;
nodes = (
(169,411,o),
(226,478,o),
(287,478,cs),
(329,478,o),
(360,452,o),
(373,408,cs),
(382,381,o),
(333,314,o),
(275,312,cs),
(149,308,l)
);
}
);
width = 500;
}
);
unicode = 101;
},
{
glyphname = schwa;
lastChange = "2023-12-29 21:36:44 +0000";
layers = (
{
layerId = m01;
shapes = (
{
closed = 1;
nodes = (
(317,-26,o),
(435,90,o),
(468,254,cs),
(497,400,o),
(426,504,o),
(295,504,cs),
(222,504,o),
(136,465,o),
(86,411,c),
(103,383,l),
(148,419,o),
(210,444,o),
(253,444,cs),
(345,444,o),
(392,351,o),
(366,219,c),
(42,219,l),
(2,76,o),
(60,-26,o),
(183,-26,cs)
);
},
{
closed = 1;
nodes = (
(155,13,o),
(117,80,o),
(132,183,c),
(127,179,ls),
(125,177,o),
(177,177,o),
(235,179,cs),
(361,183,l),
(341,80,o),
(284,13,o),
(223,13,cs)
);
}
);
width = 510;
}
);
unicode = 601;
},
{
glyphname = f;
lastChange = "2023-12-29 21:36:44 +0000";
layers = (
{
layerId = m01;
shapes = (
{
closed = 1;
nodes = (
(142,0,l),
(265,630,l),
(163,566,l),
(46,-32,l)
);
},
{
closed = 1;
nodes = (
(44,-212,o),
(117,-130,o),
(142,0,c),
(46,-32,l),
(27,-130,o),
(1,-192,o),
(-22,-192,cs),
(-33,-192,o),
(-46,-159,o),
(-57,-106,c),
(-89,-106,l),
(-107,-196,l),
(-90,-206,o),
(-67,-212,o),
(-48,-212,cs)
);
},
{
closed = 1;
nodes = (
(354,462,l),
(362,502,l),
(43,502,l),
(33,462,l)
);
},
{
closed = 1;
nodes = (
(259,598,l),
(280,709,o),
(320,787,o),
(375,787,cs),
(429,787,o),
(439,722,o),
(449,672,c),
(485,672,l),
(519,792,l),
(497,805,o),
(444,814,o),
(410,814,cs),
(285,814,o),
(191,711,o),
(163,566,c)
);
}
);
width = 332;
}
);
unicode = 102;
},
{
glyphname = g;
lastChange = "2023-12-29 21:36:44 +0000";
layers = (
{
layerId = m01;
shapes = (
{
closed = 1;
nodes = (
(157,286,l),
(178,394,o),
(254,471,o),
(341,471,cs),
(384,471,o),
(460,450,o),
(460,400,cs),
(460,399,l),
(530,460,l),
(488,486,l),
(469,504,o),
(428,516,o),
(391,516,cs),
(224,516,o),
(85,409,o),
(56,258,c)
);
},
{
closed = 1;
nodes = (
(309,-217,o),
(420,-115,o),
(448,30,c),
(352,0,l),
(330,-114,o),
(270,-194,o),
(208,-194,cs),
(119,-194,o),
(69,-123,o),
(82,-54,c),
(38,-54,l),
(14,-179,l),
(61,-201,o),
(136,-217,o),
(180,-217,cs)
);
},
{
closed = 1;
nodes = (
(272,-11,o),
(347,22,o),
(402,69,c),
(407,110,l),
(360,65,o),
(303,34,o),
(269,34,cs),
(175,34,o),
(128,138,o),
(157,286,c),
(56,258,l),
(25,100,o),
(113,-11,o),
(219,-11,cs)
);
},
{
closed = 1;
nodes = (
(448,30,l),
(531,460,l),
(441,460,l),
(352,0,l)
);
}
);
width = 550;
}
);
unicode = 103;
},
{
glyphname = h;
lastChange = "2023-12-29 21:36:44 +0000";
layers = (
{
background = {
shapes = (
{
closed = 1;
nodes = (
(543,0,l),
(547,20,l),
(462,50,l),
(523,366,ls),
(540,453,o),
(479,515,o),
(377,515,cs),
(313,515,o),
(225,462,o),
(170,415,c),
(165,374,l),
(214,419,o),
(287,470,o),
(338,470,cs),
(406,470,o),
(443,415,o),
(428,338,cs),
(372,50,l),
(294,30,l),
(288,0,l)
);
},
{
closed = 1;
nodes = (
(200,0,l),
(206,30,l),
(136,50,l),
(46,50,l),
(-51,20,l),
(-55,0,l)
);
},
{
closed = 1;
nodes = (
(136,50,l),
(266,718,l),
(283,794,l),
(274,800,l),
(77,745,l),
(74,729,l),
(176,717,l),
(46,50,l)
);
}
);
};
layerId = m01;
shapes = (
{
closed = 1;
nodes = (
(515,-16,o),
(551,5,o),
(602,34,c),
(586,65,l),
(535,36,o),
(459,35,o),
(470,96,cs),
(482,150,o),
(507,282,o),
(524,374,cs),
(539,454,o),
(473,516,o),
(380,516,cs),
(306,516,o),
(239,464,o),
(169,417,c),
(166,367,l),
(202,393,o),
(276,463,o),
(339,462,cs),
(406,461,o),
(441,413,o),
(430,351,cs),
(424,320,o),
(385,121,o),
(375,72,cs),
(365,23,o),
(393,-16,o),
(454,-16,cs)
);
},
{
closed = 1;
nodes = (
(127,0,l),
(164,189,o),
(255,653,o),
(274,752,cs),
(293,851,o),
(121,758,o),
(54,736,c),
(65,704,l),
(132,726,o),
(177,716,o),
(170,681,cs),
(163,646,o),
(48,49,o),
(38,0,c)
);
}
);
width = 611;
}
);
unicode = 104;
},
{
glyphname = hbar;
lastChange = "2023-12-29 21:36:44 +0000";
layers = (
{
layerId = m01;
shapes = (
{
closed = 1;
nodes = (
(533,0,l),
(537,20,l),
(452,50,l),
(513,366,ls),
(530,453,o),
(469,515,o),
(367,515,cs),
(303,515,o),
(215,462,o),
(160,415,c),
(155,374,l),
(204,419,o),
(277,470,o),
(328,470,cs),
(396,470,o),
(433,415,o),
(418,338,cs),
(362,50,l),
(284,30,l),
(278,0,l)
);
},
{
closed = 1;
nodes = (
(190,0,l),
(196,30,l),
(126,50,l),
(36,50,l),
(-61,20,l),
(-65,0,l)
);
},
{
closed = 1;
nodes = (
(126,50,l),
(256,718,l),
(273,794,l),
(264,800,l),
(67,745,l),
(64,729,l),
(166,717,l),
(36,50,l)
);
},
{
closed = 1;
nodes = (
(386,599,l),
(393,639,l),
(45,639,l),
(38,599,l)
);
}
);
width = 611;
}
);
unicode = 295;
},
{
glyphname = i;
lastChange = "2023-12-29 21:36:44 +0000";
layers = (
{
background = {
shapes = (
{
closed = 1;
nodes = (
(243,0,l),
(247,20,l),
(159,51,l),
(233,434,l),
(250,510,l),
(241,516,l),
(45,461,l),
(42,445,l),
(143,433,l),
(69,50,l),
(-31,20,l),
(-35,0,l)
);
}
);
};
layerId = m01;
shapes = (
{
closed = 1;
nodes = (
(212,-16,o),
(248,5,o),
(299,34,c),
(283,65,l),
(232,36,o),
(156,35,o),
(167,96,cs),
(173,130,o),
(221,370,o),
(240,469,cs),
(259,568,o),
(87,475,o),
(20,453,c),
(31,421,l),
(98,443,o),
(143,433,o),
(136,398,cs),
(129,363,o),
(82,121,o),
(72,72,cs),
(62,23,o),
(90,-16,o),
(151,-16,cs)
);
},
{
closed = 1;
nodes = (
(243,598,o),
(276,625,o),
(282,659,cs),
(289,693,o),
(267,720,o),
(234,720,cs),
(199,720,o),
(167,693,o),
(160,659,cs),
(154,625,o),
(175,598,o),
(210,598,cs)
);
}
);
width = 338;
}
);
unicode = 105;
},
{
glyphname = idotless;
lastChange = "2023-12-29 21:36:44 +0000";
layers = (
{
layerId = m01;
shapes = (
{
closed = 1;
nodes = (
(263,0,l),
(267,20,l),
(179,51,l),
(253,434,l),
(270,510,l),
(261,516,l),
(64,461,l),
(61,445,l),
(163,433,l),
(89,50,l),
(-11,20,l),
(-15,0,l)
);
}
);
width = 338;
}
);
unicode = 305;
},
{
glyphname = j;
lastChange = "2023-12-29 21:36:44 +0000";
layers = (
{
layerId = m01;
shapes = (
{
closed = 1;
nodes = (
(176,50,l),
(250,434,l),
(267,510,l),
(258,516,l),
(62,461,l),
(58,445,l),
(160,433,l),
(86,50,l)
);
},
{
closed = 1;
nodes = (
(-35,-215,l),
(-35,-215,o),
(-21,-213,o),
(7,-197,cs),
(86,-155,o),
(156,-52,o),
(176,50,c),
(86,50,l),
(64,-59,o),
(12,-159,o),
(-40,-192,c),
(-41,-194,o),
(-39,-204,o),
(-36,-215,c)
);
},
{
closed = 1;
nodes = (
(260,598,o),
(292,625,o),
(299,659,cs),
(306,693,o),
(284,720,o),
(251,720,cs),
(216,720,o),
(184,693,o),
(177,659,cs),
(170,625,o),
(192,598,o),
(227,598,cs)
);
}
);
width = 318;
}
);
unicode = 106;
},
{
glyphname = jdotless;
lastChange = "2023-12-29 21:36:44 +0000";
layers = (
{
layerId = m01;
shapes = (
{
closed = 1;
nodes = (
(195,50,l),
(270,434,l),
(287,510,l),
(278,516,l),
(81,461,l),
(78,445,l),
(180,433,l),
(105,50,l)
);
},
{
closed = 1;
nodes = (
(-15,-215,l),
(-15,-215,o),
(-2,-213,o),
(26,-197,cs),
(106,-155,o),
(176,-52,o),
(195,50,c),
(105,50,l),
(84,-59,o),
(32,-159,o),
(-21,-192,c),
(-21,-194,o),
(-19,-204,o),
(-16,-215,c)
);
}
);
width = 315;
}
);
unicode = 567;
},
{
glyphname = k;
lastChange = "2023-12-29 21:36:44 +0000";
layers = (
{
background = {
shapes = (
{
closed = 1;
nodes = (
(146,50,l),
(276,718,l),
(293,794,l),
(284,800,l),
(87,745,l),
(84,729,l),
(188,716,l),
(59,50,l)
);
},
{
closed = 1;
nodes = (
(230,0,l),
(234,20,l),
(146,50,l),
(56,50,l),
(-41,20,l),
(-45,0,l)
);
}
);
};
layerId = m01;
shapes = (
{
closed = 1;
nodes = (
(134,0,l),
(171,189,o),
(262,653,o),
(281,752,cs),
(300,851,o),
(128,758,o),
(61,736,c),
(72,704,l),
(139,726,o),
(184,716,o),
(177,681,cs),
(170,646,o),
(55,49,o),
(45,0,c)
);
},
{
closed = 1;
nodes = (
(519,0,l),
(523,20,l),
(455,51,l),
(321,353,l),
(250,290,l),
(369,0,l)
);
},
{
closed = 1;
nodes = (
(495,462,l),
(573,480,l),
(577,500,l),
(373,500,l),
(370,480,l),
(422,462,l),
(153,227,l),
(127,169,l)
);
}
);
width = 580;
}
);
unicode = 107;
},
{
glyphname = l;
lastChange = "2023-12-29 21:36:44 +0000";
layers = (
{
background = {
shapes = (
{
closed = 1;
nodes = (
(141,50,l),
(271,718,l),
(288,794,l),
(279,800,l),
(82,745,l),
(79,729,l),
(181,717,l),
(51,50,l)
);
},
{
closed = 1;
nodes = (
(225,0,l),
(229,19,l),
(141,50,l),
(51,50,l),
(-46,20,l),
(-50,0,l)
);
}
);
};
layerId = m01;
name = Regular;
shapes = (
{
closed = 1;
nodes = (
(195,-16,o),
(231,5,o),
(282,34,c),
(266,65,l),
(215,36,o),
(139,35,o),
(150,96,cs),
(156,130,o),
(258,656,o),
(277,755,cs),
(296,854,o),
(124,761,o),
(57,739,c),
(68,707,l),
(135,729,o),
(180,719,o),
(173,684,cs),
(166,649,o),
(65,121,o),
(55,72,cs),
(45,23,o),
(73,-16,o),
(134,-16,cs)
);
}
);
width = 318;
}
);
unicode = 108;
},
{
glyphname = lslash;
lastChange = "2023-12-29 21:36:44 +0000";
layers = (
{
layerId = m01;
shapes = (
{
closed = 1;
nodes = (
(141,50,l),
(271,718,l),
(288,794,l),
(279,800,l),
(82,745,l),
(79,729,l),
(181,717,l),
(51,50,l)
);
},
{
closed = 1;
nodes = (
(225,0,l),
(229,19,l),
(141,50,l),
(51,50,l),
(-46,20,l),
(-50,0,l)
);
},
{
closed = 1;
nodes = (
(331,464,l),
(319,503,l),
(7,350,l),
(20,311,l)
);
}
);
width = 318;
}
);
unicode = 322;
},
{
glyphname = m;
lastChange = "2023-12-29 21:36:44 +0000";
layers = (
{
background = {
shapes = (
{
closed = 1;
nodes = (
(817,0,l),
(821,20,l),
(736,50,l),
(801,386,ls),
(816,462,o),
(758,515,o),
(661,515,cs),
(609,515,o),
(535,474,o),
(484,415,c),
(477,364,l),
(527,426,o),
(587,470,o),
(621,470,cs),
(683,470,o),
(718,424,o),
(705,358,cs),
(646,50,l),
(568,30,l),
(562,0,l)
);
},
{
closed = 1;
nodes = (
(230,0,l),
(236,30,l),
(164,50,l),
(238,434,l),
(246,510,l),
(237,516,l),
(49,461,l),
(46,445,l),
(148,433,l),
(74,50,l),
(-26,20,l),
(-30,0,l)
);
},
{
closed = 1;
nodes = (
(511,0,l),
(517,30,l),
(449,49,l),
(515,386,ls),
(530,462,o),
(472,515,o),
(375,515,cs),
(305,515,o),
(228,454,o),
(194,395,c),
(187,344,l),
(218,406,o),
(281,470,o),
(335,470,cs),
(397,470,o),
(432,424,o),
(419,358,cs),
(360,50,l),
(282,30,l),
(276,0,l)
);
}
);
};
layerId = m01;
shapes = (
{
closed = 1;
nodes = (
(791,-16,o),
(827,5,o),
(878,34,c),
(862,65,l),
(811,36,o),
(735,35,o),
(746,96,cs),
(758,150,o),
(783,282,o),
(800,374,cs),
(815,454,o),
(759,516,o),
(666,516,cs),
(592,516,o),
(515,444,o),
(445,397,c),
(442,347,l),
(478,373,o),
(562,463,o),
(625,462,cs),
(692,461,o),
(717,413,o),
(706,351,cs),
(700,320,o),
(661,121,o),
(651,72,cs),
(641,23,o),
(669,-16,o),
(730,-16,cs)
);
},
{
closed = 1;
nodes = (
(153,0,l),
(190,189,o),
(224,370,o),
(243,469,cs),
(262,568,o),
(90,475,o),
(23,453,c),
(34,421,l),
(101,443,o),
(146,433,o),
(139,398,cs),
(132,363,o),
(74,49,o),
(64,0,c)
);
},
{
closed = 1;
nodes = (
(438,0,l),
(450,54,o),
(493,282,o),
(510,374,cs),
(525,454,o),
(469,516,o),
(376,516,cs),
(302,516,o),
(225,444,o),
(155,397,c),
(152,347,l),
(188,373,o),
(272,463,o),
(335,462,cs),
(402,461,o),
(427,413,o),
(416,351,cs),
(410,320,o),
(359,49,o),
(349,0,c)
);
}
);
width = 877;
}
);
unicode = 109;
},
{
glyphname = n;
lastChange = "2023-12-29 21:36:44 +0000";
layers = (
{
background = {
shapes = (
{
closed = 1;
nodes = (
(581,0,l),
(585,20,l),
(500,50,l),
(561,366,ls),
(578,453,o),
(522,515,o),
(425,515,cs),
(367,515,o),
(283,462,o),
(228,415,c),
(221,368,l),
(270,413,o),
(339,464,o),
(384,464,cs),
(446,464,o),
(481,415,o),
(466,338,cs),
(410,50,l),
(330,20,l),
(326,0,l)
);
},
{
closed = 1;
nodes = (
(240,0,l),
(244,20,l),
(174,50,l),
(248,434,l),
(256,510,l),
(247,516,l),
(59,461,l),
(56,445,l),
(158,433,l),
(84,50,l),
(-16,20,l),
(-20,0,l)
);
}
);
};
layerId = m01;
shapes = (
{
closed = 1;
nodes = (
(551,-16,o),
(587,5,o),
(638,34,c),
(622,65,l),
(571,36,o),
(495,35,o),
(506,96,cs),
(518,150,o),
(543,282,o),
(560,374,cs),
(575,454,o),
(519,516,o),
(426,516,cs),
(352,516,o),
(275,454,o),
(205,407,c),
(202,357,l),
(238,383,o),
(322,463,o),
(385,462,cs),
(452,461,o),
(477,413,o),
(466,351,cs),
(460,320,o),
(421,121,o),
(411,72,cs),
(401,23,o),
(429,-16,o),
(490,-16,cs)
);
},
{
closed = 1;
nodes = (
(163,0,l),
(200,189,o),
(234,370,o),
(253,469,cs),
(272,568,o),
(100,475,o),
(33,453,c),
(44,421,l),
(111,443,o),
(156,433,o),
(149,398,cs),
(142,363,o),
(84,49,o),
(74,0,c)
);
}
);
width = 631;
}
);
unicode = 110;
},
{
glyphname = o;
lastChange = "2023-12-29 21:36:44 +0000";
layers = (
{
background = {
shapes = (
{
closed = 1;
nodes = (
(194,516,o),
(129,467,o),
(129,390,c),
(129,190,o),
(410,220,o),
(410,120,c),
(410,49,o),
(367,4,o),
(298,4,c),
(213,4,o),
(159,49,o),
(159,120,c),
(124,120,l),
(124,24,l),
(170,-1,o),
(237,-16,o),
(298,-16,c),
(404,-16,o),
(470,36,o),
(470,120,c),
(470,320,o),
(199,290,o),
(199,390,c),
(199,455,o),
(237,496,o),
(298,496,c),
(370,496,o),
(416,451,o),
(416,380,c),
(451,380,l),
(451,473,l),
(425,499,o),
(366,516,o),
(298,516,c)
);
}
);
};
layerId = m01;
shapes = (
{
closed = 1;
nodes = (
(364,-15,o),
(494,106,o),
(527,278,cs),
(554,418,o),
(487,517,o),
(366,517,cs),
(208,517,o),
(77,416,o),
(50,274,cs),
(16,105,o),
(85,-15,o),
(215,-15,cs)
);
},
{
closed = 1;
nodes = (
(149,20,o),
(122,121,o),
(157,302,cs),
(180,418,o),
(247,482,o),
(346,482,cs),
(422,482,o),
(448,398,o),
(418,247,cs),
(390,101,o),
(325,20,o),
(235,20,cs)
);
}
);
width = 566;
}
);
unicode = 111;
},
{
glyphname = oslash;
lastChange = "2023-12-29 21:36:44 +0000";
layers = (
{
layerId = m01;
shapes = (
{
closed = 1;
nodes = (
(68,-39,l),
(560,540,l),
(506,540,l),
(14,-39,l)
);
},
{
closed = 1;
nodes = (
(371,-15,o),
(492,102,o),
(524,267,cs),
(553,413,o),
(475,517,o),
(337,517,cs),
(196,517,o),
(76,409,o),
(46,257,cs),
(15,98,o),
(92,-15,o),
(233,-15,cs)
);
},
{
closed = 1;
nodes = (
(160,20,o),
(122,121,o),
(154,285,cs),
(177,407,o),
(240,482,o),
(317,482,cs),
(407,482,o),
(446,388,o),
(416,236,cs),
(390,102,o),
(327,20,o),
(253,20,cs)
);
}
);
width = 566;
}
);
unicode = 248;
},
{
glyphname = oe;
lastChange = "2023-12-29 21:36:44 +0000";
layers = (
{
layerId = m01;
shapes = (
{
closed = 1;
nodes = (
(371,-15,o),
(492,102,o),
(524,267,cs),
(552,413,o),
(475,517,o),
(337,517,cs),
(196,517,o),
(76,409,o),
(46,257,cs),
(15,98,o),
(92,-15,o),
(233,-15,cs)
);
},
{
closed = 1;
nodes = (
(160,20,o),
(122,121,o),
(154,285,cs),
(177,407,o),
(240,482,o),
(317,482,cs),
(407,482,o),
(446,388,o),
(416,236,cs),
(390,102,o),
(327,20,o),
(253,20,cs)
);
},
{
closed = 1;
nodes = (
(670,-13,o),
(755,26,o),
(805,80,c),
(788,108,l),
(743,72,o),
(681,47,o),
(638,47,cs),
(546,47,o),
(499,140,o),
(525,272,c),
(849,272,l),
(889,415,o),
(831,517,o),
(708,517,cs),
(574,517,o),
(456,401,o),
(423,237,cs),
(394,91,o),
(466,-13,o),
(597,-13,cs)
);
},
{
closed = 1;
nodes = (
(550,411,o),
(607,478,o),
(668,478,cs),
(736,478,o),
(774,411,o),
(759,308,c),
(764,312,ls),
(766,314,o),
(714,314,o),
(656,312,cs),
(530,308,l)
);
}
);
width = 891;
}
);
unicode = 339;
},
{
glyphname = p;
lastChange = "2023-12-29 21:36:44 +0000";
layers = (
{
background = {
shapes = (
{
closed = 1;
nodes = (
(213,-200,l),
(217,-180,l),
(129,-150,l),
(39,-150,l),
(-58,-180,l),
(-62,-200,l)
);
},
{
closed = 1;
nodes = (
(129,-150,l),
(243,436,l),
(249,502,l),
(240,508,l),
(54,463,l),
(51,447,l),
(153,435,l),
(39,-150,l)
);
}
);
};
layerId = m01;
name = Regular;
shapes = (
{
closed = 1;
nodes = (
(399,-15,o),
(524,102,o),
(556,268,cs),
(585,414,o),
(524,517,o),
(410,517,cs),
(357,517,o),
(270,474,o),
(200,413,c),
(190,399,l),
(214,378,l),
(218,380,o),
(222,386,o),
(222,386,c),
(266,430,o),
(322,461,o),
(359,461,cs),
(438,461,o),
(477,372,o),
(452,245,cs),
(426,113,o),
(354,20,o),
(278,20,cs),
(247,20,o),
(186,34,o),
(147,92,cs),
(145,95,l),
(109,60,l),
(117,56,l),
(165,3,o),
(225,-15,o),
(256,-15,cs)
);
},
{
closed = 1;
nodes = (
(118,-202,l),
(155,-13,o),
(229,370,o),
(248,469,cs),
(267,568,o),
(95,475,o),
(28,453,c),
(39,421,l),
(106,443,o),
(151,433,o),
(144,398,cs),
(137,363,o),
(39,-153,o),
(29,-202,c)
);
}
);
width = 600;
}
);
unicode = 112;
},
{
glyphname = thorn;
lastChange = "2023-12-29 21:36:44 +0000";
layers = (
{
layerId = m01;
shapes = (
{
closed = 1;
nodes = (
(112,-150,l),
(280,718,l),
(297,794,l),
(288,800,l),
(91,745,l),
(88,729,l),
(190,717,l),
(22,-150,l)
);
},
{
closed = 1;
nodes = (
(196,-200,l),
(200,-180,l),
(112,-150,l),
(22,-150,l),
(-75,-180,l),
(-79,-200,l)
);
},
{
closed = 1;
nodes = (
(363,-12,o),
(505,111,o),
(539,286,c),
(442,258,l),
(416,126,o),
(335,28,o),
(248,28,cs),
(205,28,o),
(162,65,o),
(131,104,cs),
(130,105,l),
(60,44,l),
(102,18,l),
(124,0,o),
(164,-12,o),
(199,-12,cs)
);
},
{
closed = 1;
nodes = (
(539,286,l),
(565,420,o),
(495,515,o),
(372,515,cs),
(319,515,o),
(243,482,o),
(188,435,c),
(182,385,l),
(229,430,o),
(288,469,o),
(322,469,cs),
(416,469,o),
(466,382,o),
(442,258,c)
);
}
);
width = 600;
}
);
unicode = 254;
},
{
glyphname = q;
lastChange = "2023-12-29 21:36:44 +0000";
layers = (
{
background = {
shapes = (
{
closed = 1;
nodes = (
(495,-200,l),
(499,-180,l),
(411,-150,l),
(321,-150,l),
(224,-180,l),
(220,-200,l)
);
},
{
closed = 1;
nodes = (
(411,-150,l),
(530,460,l),
(440,460,l),
(321,-150,l)
);
}
);
};
layerId = m01;
shapes = (
{
closed = 1;
nodes = (
(299,-268,o),
(471,-175,o),
(538,-153,c),
(527,-121,l),
(460,-143,o),
(415,-133,o),
(422,-98,cs),
(429,-63,o),
(520,411,o),
(530,460,c),
(441,460,l),
(404,271,o),
(337,-70,o),
(318,-169,cs)
);
},
{
closed = 1;
nodes = (
(270,-11,o),
(346,22,o),
(401,69,c),
(406,110,l),
(358,65,o),
(301,34,o),
(267,34,cs),
(173,34,o),
(126,138,o),
(155,286,c),
(54,258,l),
(24,100,o),
(91,-11,o),
(217,-11,cs)
);
},
{
closed = 1;
nodes = (
(155,286,l),
(176,394,o),
(253,471,o),
(340,471,cs),
(383,471,o),
(423,435,o),
(458,400,cs),
(459,399,l),
(529,460,l),
(487,486,l),
(467,504,o),
(427,516,o),
(390,516,cs),
(223,516,o),
(84,409,o),
(54,258,c)
);
}
);
width = 575;
}
);
unicode = 113;
},
{
glyphname = r;
lastChange = "2023-12-29 21:36:44 +0000";
layers = (
{
background = {
shapes = (
{
closed = 1;
nodes = (
(187,516,l),
(192,513,ls),
(195,511,o),
(199,496,o),
(202,460,cs),
(204,434,l),
(204,108,ls),
(204,69,o),
(223,45,o),
(261,35,cs),
(274,32,o),
(280,25,o),
(280,15,cs),
(280,6,o),
(257,0,o),
(214,0,cs),
(20,0,l),
(20,10,ls),
(20,16,o),
(35,25,o),
(67,35,cs),
(99,45,o),
(114,69,o),
(114,107,cs),
(114,370,ls),
(114,411,o),
(92,435,o),
(52,440,cs),
(10,445,l),
(10,453,ls),
(10,458,o),
(28,466,o),
(65,478,cs)
);
},
{
closed = 1;
nodes = (
(244,464,o),
(270,517,o),
(302,517,cs),
(316,517,o),
(335,515,o),
(353,512,cs),
(386,506,o),
(398,481,o),
(390,447,cs),
(382,415,o),
(371,398,o),
(363,403,cs),
(336,416,o),
(307,419,o),
(283,419,cs),
(257,419,o),
(240,404,o),
(221,378,cs),
(192,338,o),
(173,316,o),
(168,323,cs),
(162,332,o),
(170,350,o),
(191,384,cs)
);
},
{
closed = 1;
nodes = (
(161,50,l),
(236,434,l),
(247,509,l),
(237,516,l),
(49,461,l),
(46,445,l),
(148,433,l),
(73,50,l)
);
},
{
closed = 1;
nodes = (
(258,0,l),
(262,20,l),
(161,50,l),
(73,50,l),
(-26,20,l),
(-30,0,l)
);
}
);
};
layerId = m01;
shapes = (
{
closed = 1;
nodes = (
(152,0,l),
(189,189,o),
(223,370,o),
(242,469,cs),
(261,568,o),
(89,475,o),
(22,453,c),
(33,421,l),
(100,443,o),
(145,433,o),
(138,398,cs),
(131,363,o),
(73,49,o),
(63,0,c)
);
},
{
closed = 1;
nodes = (
(243,361,o),
(274,429,o),
(316,429,cs),
(340,429,o),
(367,420,o),
(391,403,c),
(448,485,l),
(418,507,o),
(376,520,o),
(323,517,c),
(170,326,l),
(181,294,l)
);
}
);
width = 424;
}
);
unicode = 114;
},
{
glyphname = s;
lastChange = "2023-12-29 21:36:44 +0000";
layers = (
{
background = {
shapes = (
{
closed = 1;
nodes = (
(125,516,o),
(55,460,o),
(55,380,cs),
(55,180,o),
(336,210,o),
(336,110,cs),
(336,54,o),
(290,14,o),
(224,14,cs),
(179,14,o),
(139,45,o),
(116,94,cs),
(78,182,o),
(67,165,o),
(62,34,c),
(98,4,o),
(166,-16,o),
(224,-16,cs),
(325,-16,o),
(396,44,o),
(396,130,cs),
(396,330,o),
(125,300,o),
(125,400,cs),
(125,450,o),
(166,486,o),
(224,486,cs),
(264,486,o),
(299,459,o),
(320,416,cs),
(337,379,o),
(342,360,o),
(352,360,cs),
(365,360,o),
(371,403,o),
(367,481,c),
(337,499,o),
(280,516,o),
(224,516,cs)
);
}
);
};
layerId = m01;
shapes = (
{
closed = 1;
nodes = (
(273,-16,o),
(356,44,o),
(373,130,cs),
(411,325,o),
(135,300,o),
(154,400,cs),
(164,450,o),
(212,486,o),
(270,486,cs),
(310,486,o),
(340,459,o),
(352,416,cs),
(366,360,l),
(389,360,l),
(413,481,l),
(384,499,o),
(332,516,o),
(276,516,cs),
(177,516,o),
(96,460,o),
(80,380,cs),
(42,185,o),
(328,210,o),
(309,110,cs),
(298,54,o),
(244,14,o),
(178,14,cs),
(133,14,o),
(99,45,o),
(86,94,cs),
(72,149,l),
(50,149,l),
(20,34,l),
(50,4,o),
(114,-16,o),
(172,-16,cs)
);
}
);
width = 441;
}
);
unicode = 115;
},
{
glyphname = germandbls;
lastChange = "2023-12-29 21:36:44 +0000";
layers = (
{
layerId = m01;
shapes = (
{
closed = 1;
nodes = (
(426,-16,o),
(496,44,o),
(513,130,cs),
(551,325,o),
(326,310,o),
(343,400,cs),
(360,489,o),
(517,534,o),
(537,634,cs),
(559,750,o),
(514,814,o),
(409,814,cs),
(284,814,o),
(170,711,o),
(141,566,c),
(238,598,l),
(259,709,o),
(319,787,o),
(374,787,cs),
(418,787,o),
(475,687,o),
(460,611,cs),
(446,536,o),
(301,479,o),
(281,380,cs),
(243,185,o),
(477,200,o),
(460,110,cs),
(449,54,o),
(404,19,o),
(350,19,cs),
(313,19,o),
(283,45,o),
(273,94,cs),
(264,139,l),
(246,139,l),
(220,34,l),
(243,4,o),
(295,-16,o),
(343,-16,cs)
);
},
{
closed = 1;
nodes = (
(23,-212,o),
(93,-135,o),
(119,0,c),
(23,-32,l),
(3,-134,o),
(-25,-192,o),
(-66,-192,c),
(-71,-212,l)
);
},
{
closed = 1;
nodes = (
(119,0,l),
(238,598,l),
(141,566,l),
(23,-32,l)
);
}
);
width = 580;
}
);
unicode = 223;
},
{
glyphname = t;
lastChange = "2023-12-29 21:36:44 +0000";
layers = (
{
layerId = m01;
shapes = (
{
closed = 1;
nodes = (
(202,-15,o),
(283,13,o),
(334,53,c),
(320,81,l),
(282,53,o),
(239,34,o),
(203,34,cs),
(172,34,o),
(149,70,o),
(161,134,cs),
(264,660,l),
(164,597,l),
(68,99,ls),
(55,32,o),
(84,-15,o),
(138,-15,cs)
);
},
{
closed = 1;
nodes = (
(369,462,l),
(377,502,l),
(58,502,l),
(48,462,l)
);
}
);
width = 372;
}
);
unicode = 116;
},
{
glyphname = u;
lastChange = "2023-12-29 21:36:44 +0000";
layers = (
{
background = {
shapes = (
{
closed = 1;
nodes = (
(254,-15,o),
(333,38,o),
(388,85,c),
(395,133,l),
(346,88,o),
(282,37,o),
(237,37,cs),
(175,37,o),
(145,85,o),
(160,162,cs),
(226,500,l),
(45,500,l),
(41,480,l),
(126,450,l),
(65,134,ls),
(48,47,o),
(104,-15,o),
(196,-15,cs)
);
},
{
closed = 1;
nodes = (
(553,19,l),
(556,35,l),
(454,47,l),
(542,500,l),
(376,500,l),
(370,470,l),
(442,450,l),
(372,86,l),
(360,-10,l),
(369,-16,l)
);
}
);
};
layerId = m01;
shapes = (
{
closed = 1;
nodes = (
(273,-16,o),
(350,56,o),
(420,103,c),
(423,153,l),
(387,127,o),
(303,37,o),
(240,38,cs),
(173,39,o),
(148,87,o),
(159,149,cs),
(165,180,o),
(204,379,o),
(214,428,cs),
(224,477,o),
(196,516,o),
(135,516,cs),
(74,516,o),
(38,495,o),
(-13,466,c),
(3,435,l),
(54,464,o),
(130,465,o),
(119,404,cs),
(107,350,o),
(82,218,o),
(65,126,cs),
(50,46,o),
(106,-16,o),
(199,-16,cs)
);
},
{
closed = 1;
nodes = (
(343,-68,o),
(515,25,o),
(582,47,c),
(571,79,l),
(504,57,o),
(459,67,o),
(466,102,cs),
(473,137,o),
(531,451,o),
(541,500,c),
(452,500,l),
(415,311,o),
(381,130,o),
(362,31,cs)
);
}
);
width = 591;
}
);
unicode = 117;
},
{
glyphname = v;
lastChange = "2023-12-29 21:36:44 +0000";
layers = (
{
layerId = m01;
shapes = (
{
closed = 1;
nodes = (
(455,446,l),
(539,480,l),
(543,500,l),
(339,500,l),
(335,480,l),
(398,448,l),
(176,62,l),
(159,-26,l)
);
},
{
closed = 1;
nodes = (
(228,115,l),
(158,500,l),
(3,500,l),
(-1,480,l),
(69,449,l),
(159,-26,l)
);
}
);
width = 500;
}
);
unicode = 118;
},
{
glyphname = w;
lastChange = "2023-12-29 21:36:44 +0000";
layers = (
{
layerId = m01;
shapes = (
{
closed = 1;
nodes = (
(675,448,l),
(755,480,l),
(759,500,l),
(555,500,l),
(551,480,l),
(625,449,l),
(434,72,l),
(415,-26,l)
);
},
{
closed = 1;
nodes = (
(208,129,l),
(164,500,l),
(13,500,l),
(9,480,l),
(80,448,l),
(139,-26,l)
);
},
{
closed = 1;
nodes = (
(374,413,l),
(419,500,l),
(309,500,l),
(305,480,l),
(368,480,l),
(158,72,l),
(139,-26,l)
);
},
{
closed = 1;
nodes = (
(488,151,l),
(439,500,l),
(309,500,l),
(305,480,l),
(360,464,l),
(415,-26,l)
);
}
);
width = 726;
}
);
unicode = 119;
},
{
glyphname = x;
lastChange = "2023-12-29 21:36:44 +0000";
layers = (
{
layerId = m01;
shapes = (
{
closed = 1;
nodes = (
(475,0,l),
(479,17,l),
(411,43,l),
(199,500,l),
(44,500,l),
(40,483,l),
(113,450,l),
(319,0,l)
);
},
{
closed = 1;
nodes = (
(128,0,l),
(133,22,l),
(79,47,l),
(269,262,l),
(252,290,l),
(16,47,l),
(-49,22,l),
(-54,0,l)
);
},
{
closed = 1;
nodes = (
(487,458,l),
(547,478,l),
(552,500,l),
(369,500,l),
(364,478,l),
(424,458,l),
(248,272,l),
(265,243,l)
);
}
);
width = 563;
}
);
unicode = 120;
},
{
glyphname = y;
lastChange = "2023-12-29 21:36:44 +0000";
layers = (
{
background = {
shapes = (
{
closed = 1;
nodes = (
(456,462,l),
(531,480,l),
(531,500,l),
(322,500,l),
(322,481,l),
(403,463,l),
(276,145,l),
(125,500,l),
(-29,500,l),
(-29,479,l),
(45,450,l),
(223,23,l),
(190,-59,o),
(168,-125,o),
(143,-160,cs),
(121,-189,o),
(102,-193,o),
(105,-205,cs),
(108,-217,o),
(141,-223,o),
(168,-189,cs),
(198,-150,o),
(225,-83,o),
(260,0,cs)
);
},
{
closed = 1;
nodes = (
(101,-192,o),
(81,-190,o),
(62,-164,cs),
(53,-152,o),
(45,-136,o),
(39,-117,cs),
(27,-77,o),
(21,-57,o),
(11,-57,cs),
(2,-57,o),
(-4,-80,o),
(-4,-122,cs),
(-4,-157,o),
(8,-183,o),
(39,-201,cs),
(42,-203,o),
(46,-205,o),
(50,-207,cs),
(81,-222,o),
(108,-215,o),
(105,-205,cs)
);
}
);
};
layerId = m01;
shapes = (
{
closed = 1;
nodes = (
(511,450,l),
(597,480,l),
(601,500,l),
(392,500,l),
(388,481,l),
(455,451,l),
(277,145,l),
(195,500,l),
(41,500,l),
(37,479,l),
(105,450,l),
(200,23,l),
(232,0,l)
);
},
{
closed = 1;
nodes = (
(99,-216,l),
(232,0,l),
(200,23,l),
(53,-167,l),
(-39,-194,l),
(-44,-216,l)
);
}
);
width = 580;
}
);
unicode = 121;
},
{
glyphname = z;
lastChange = "2023-12-29 21:36:44 +0000";
layers = (
{
layerId = m01;
shapes = (
{
closed = 1;
nodes = (
(387,2,l),
(419,170,l),
(394,170,l),
(335,42,l),
(85,42,l),
(474,471,l),
(470,501,l),
(90,501,l),
(56,323,l),
(81,323,l),
(147,461,l),
(359,461,l),
(-21,41,l),
(-28,2,l)
);
}
);
width = 495;
}
);
unicode = 122;
},
{
glyphname = zero;
lastChange = "2023-12-29 21:36:44 +0000";
layers = (
{
layerId = m01;
shapes = (
{
closed = 1;
nodes = (
(387,-15,o),
(510,132,o),
(556,367,cs),
(598,582,o),
(529,717,o),
(378,717,cs),
(224,717,o),
(91,578,o),
(48,357,cs),
(4,128,o),
(82,-15,o),
(236,-15,cs)
);
},
{
closed = 1;
nodes = (
(148,18,o),
(110,139,o),
(158,385,cs),
(196,585,o),
(270,683,o),
(359,683,cs),
(463,683,o),
(491,569,o),
(446,336,cs),
(404,122,o),
(342,18,o),
(255,18,cs)
);
}
);
width = 600;
}
);
unicode = 48;
},
{
glyphname = one;
lastChange = "2023-12-29 21:36:44 +0000";
layers = (
{
layerId = m01;
shapes = (
{
closed = 1;
nodes = (
(330,0,l),
(472,720,l),
(464,726,l),
(128,534,l),
(134,477,l),
(364,609,l),
(245,0,l)
);
},
{
closed = 1;
nodes = (
(461,0,l),
(470,45,l),
(119,45,l),
(110,0,l)
);
}
);
width = 600;
}
);
unicode = 49;
},
{
glyphname = two;
lastChange = "2023-12-29 21:36:44 +0000";
layers = (
{
layerId = m01;
shapes = (
{
closed = 1;
nodes = (
(452,0,l),
(515,197,l),
(467,204,l),
(377,50,l),
(137,50,l),
(191,325,o),
(526,315,o),
(569,539,cs),
(595,671,o),
(501,714,o),
(368,715,c),
(362,680,l),
(443,680,o),
(479,609,o),
(461,515,cs),
(426,337,o),
(80,253,o),
(44,70,cs),
(31,0,l)
);
},
{
closed = 1;
nodes = (
(180,456,l),
(209,605,o),
(291,680,o),
(362,680,c),
(368,715,l),
(301,715,o),
(225,679,o),
(161,627,c),
(128,456,l)
);
}
);
width = 600;
}
);
unicode = 50;
},
{
glyphname = three;
lastChange = "2023-12-29 21:36:44 +0000";
layers = (
{
background = {
shapes = (
{
closed = 0;
nodes = (
(299,680,l),
(299,715,l)
);
},
{
closed = 1;
nodes = (
(299,680,l),
(228,680,o),
(171,585,o),
(171,456,c),
(109,456,l),
(109,627,l),
(163,679,o),
(232,715,o),
(299,715,c)
);
}
);
};
layerId = m01;
shapes = (
{
closed = 1;
nodes = (
(366,-14,o),
(495,73,o),
(519,196,cs),
(543,321,o),
(441,376,o),
(295,376,c),
(283,341,l),
(374,341,o),
(434,268,o),
(414,164,cs),
(398,83,o),
(324,26,o),
(250,26,cs),
(146,26,o),
(108,112,o),
(127,205,c),
(75,205,l),
(45,54,l),
(76,14,o),
(150,-14,o),
(222,-14,cs)
);
},
{
closed = 1;
nodes = (
(408,341,o),
(535,433,o),
(560,562,cs),
(581,673,o),
(509,717,o),
(394,717,cs),
(313,717,o),
(215,667,o),
(166,627,c),
(134,457,l),
(186,457,l),
(214,605,o),
(273,677,o),
(366,677,cs),
(435,677,o),
(473,622,o),
(457,544,cs),
(438,446,o),
(359,376,o),
(265,376,c),
(253,341,l)
);
}
);
width = 600;
}
);
unicode = 51;
},
{
glyphname = four;
lastChange = "2023-12-29 21:36:44 +0000";
layers = (
{
layerId = m01;
shapes = (
{
closed = 1;
nodes = (
(379,-10,l),
(531,759,l),
(23,200,l),
(12,145,l),
(522,145,l),
(536,216,l),
(99,216,l),
(411,565,l),
(299,-10,l)
);
}
);
width = 600;
}
);
unicode = 52;
},
{
glyphname = five;
lastChange = "2023-12-29 21:36:44 +0000";
layers = (
{
background = {
shapes = (
{
closed = 0;
nodes = (
(299,-14,l),
(299,21,l)
);
},
{
closed = 1;
nodes = (
(299,21,l),
(228,21,o),
(171,116,o),
(171,245,c),
(109,245,l),
(109,74,l),
(163,22,o),
(232,-14,o),
(299,-14,c)
);
}
);
};
layerId = m01;
shapes = (
{
closed = 1;
nodes = (
(371,-14,o),
(492,88,o),
(520,231,cs),
(544,355,o),
(467,442,o),
(335,442,cs),
(277,442,o),
(210,425,o),
(172,400,c),
(225,620,l),
(500,620,l),
(497,512,l),
(535,512,l),
(571,700,l),
(194,700,l),
(110,349,l),
(133,311,l),
(182,361,o),
(254,397,o),
(306,397,cs),
(392,397,o),
(438,315,o),
(415,199,cs),
(395,95,o),
(327,21,o),
(253,21,cs),
(169,21,o),
(110,74,o),
(135,205,c),
(73,205,l),
(48,74,l),
(88,22,o),
(168,-14,o),
(227,-14,cs)
);
}
);
width = 600;
}
);
unicode = 53;
},
{
glyphname = six;
lastChange = "2023-12-29 21:36:44 +0000";
layers = (
{
background = {
shapes = (
{
closed = 0;
nodes = (
(335,719,l),
(335,684,l)
);
},
{
closed = 1;
nodes = (
(335,684,l),
(406,684,o),
(463,589,o),
(463,460,c),
(525,460,l),
(525,631,l),
(471,683,o),
(402,719,o),
(335,719,c)
);
}
);
};
layerId = m01;
shapes = (
{
closed = 1;
nodes = (
(395,-13,o),
(502,84,o),
(532,239,cs),
(556,364,o),
(491,432,o),
(342,442,cs),
(292,445,o),
(223,411,o),
(167,362,c),
(212,561,o),
(299,686,o),
(390,686,cs),
(444,686,o),
(522,622,o),
(500,505,c),
(555,505,l),
(581,641,l),
(539,694,o),
(456,719,o),
(396,719,cs),
(241,719,o),
(114,569,o),
(68,330,cs),
(27,119,o),
(99,-13,o),
(254,-13,cs)
);
},
{
closed = 1;
nodes = (
(164,18,o),
(121,110,o),
(149,256,cs),
(167,349,o),
(240,408,o),
(336,408,cs),
(423,408,o),
(464,335,o),
(441,220,cs),
(417,96,o),
(347,18,o),
(260,18,cs)
);
}
);
width = 600;
},
{
associatedMasterId = m01;
layerId = "1195E631-5ECC-486D-BD96-CFB874B4C452";
name = "27. Dez. 23, 09:50";
shapes = (
{
closed = 1;
nodes = (
(195,412,o),
(97,344,o),
(97,249,cs),
(97,172,o),
(201,-13,o),
(323,-13,cs),
(450,-13,o),
(550,83,o),
(550,219,cs),
(550,332,o),
(460,412,o),
(333,412,cs)
);
},
{
closed = 1;
nodes = (
(184,719,o),
(88,580,o),
(88,330,c),
(190,330,l),
(190,559,o),
(245,686,o),
(325,686,cs),
(395,686,o),
(439,625,o),
(466,515,c),
(494,515,l),
(494,649,l),
(440,694,o),
(391,719,o),
(339,719,cs)
);
},
{
closed = 1;
nodes = (
(402,378,o),
(453,305,o),
(453,190,cs),
(453,84,o),
(401,18,o),
(334,18,cs),
(242,18,o),
(194,118,o),
(194,276,cs),
(194,339,o),
(243,378,o),
(322,378,cs)
);
},
{
closed = 1;
nodes = (
(334,18,l),
(235,18,o),
(190,99,o),
(190,330,c),
(88,330,l),
(88,110,o),
(166,-13,o),
(323,-13,c)
);
}
);
width = 600;
}
);
unicode = 54;
},
{
glyphname = seven;
lastChange = "2023-12-29 21:36:44 +0000";
layers = (
{
layerId = m01;
shapes = (
{
closed = 1;
nodes = (
(203,-10,l),
(586,591,l),
(607,700,l),
(137,700,l),
(99,507,l),
(127,507,l),
(165,605,l),
(520,605,l),
(139,-10,l)
);
}
);
width = 600;
}
);
unicode = 55;
},
{
glyphname = eight;
lastChange = "2023-12-29 21:36:44 +0000";
layers = (
{
layerId = m01;
shapes = (
{
closed = 1;
nodes = (
(395,-15,o),
(515,70,o),
(538,190,cs),
(560,304,o),
(473,384,o),
(328,384,cs),
(187,384,o),
(72,304,o),
(50,192,cs),
(27,71,o),
(109,-15,o),
(250,-15,cs)
);
},
{
closed = 1;
nodes = (
(173,20,o),
(129,98,o),
(150,208,cs),
(167,293,o),
(238,353,o),
(322,353,cs),
(410,353,o),
(458,278,o),
(437,172,cs),
(420,83,o),
(345,20,o),
(257,20,cs)
);
},
{
closed = 1;
nodes = (
(245,384,o),
(199,455,o),
(219,555,cs),
(233,628,o),
(302,680,o),
(385,680,cs),
(462,680,o),
(504,620,o),
(488,534,cs),
(471,446,o),
(405,384,o),
(328,384,cs)
);
},
{
closed = 1;
nodes = (
(449,358,o),
(553,435,o),
(574,544,cs),
(593,644,o),
(518,715,o),
(392,715,cs),
(259,715,o),
(151,641,o),
(130,537,cs),
(110,432,o),
(190,358,o),
(323,358,cs)
);
}
);
width = 600;
}
);
unicode = 56;
},
{
glyphname = nine;
lastChange = "2023-12-29 21:36:44 +0000";
layers = (
{
background = {
shapes = (
{
closed = 1;
nodes = (
(402,292,o),
(500,360,o),
(500,455,cs),
(500,514,o),
(402,717,o),
(264,717,cs),
(137,717,o),
(47,621,o),
(47,485,cs),
(47,372,o),
(137,292,o),
(264,292,cs)
);
},
{
closed = 1;
nodes = (
(395,-15,o),
(476,82,o),
(501,261,cs),
(512,338,o),
(489,383,o),
(458,374,cs),
(423,364,o),
(406,340,o),
(405,300,cs),
(397,118,o),
(354,18,o),
(282,18,cs),
(209,18,o),
(155,60,o),
(128,137,cs),
(114,176,o),
(108,195,o),
(98,195,cs),
(89,195,o),
(83,172,o),
(83,129,cs),
(83,106,ls),
(83,72,o),
(93,46,o),
(122,27,cs),
(166,0,o),
(216,-15,o),
(268,-15,cs)
);
},
{
closed = 1;
nodes = (
(198,326,o),
(144,404,o),
(144,514,cs),
(144,615,o),
(189,686,o),
(253,686,cs),
(385,686,o),
(403,546,o),
(403,428,cs),
(403,368,o),
(350,326,o),
(275,326,cs)
);
},
{
closed = 1;
nodes = (
(254,692,o),
(277,692,o),
(314,671,cs),
(362,643,o),
(395,574,o),
(404,439,cs),
(407,390,o),
(426,365,o),
(458,374,cs),
(492,383,o),
(510,408,o),
(506,448,cs),
(489,584,o),
(419,682,o),
(321,709,cs),
(284,720,o),
(262,713,o),
(258,702,cs)
);
}
);
};
layerId = m01;
shapes = (
{
closed = 1;
nodes = (
(363,-20,o),
(496,141,o),
(540,369,cs),
(580,570,o),
(505,712,o),
(362,712,cs),
(223,712,o),
(106,616,o),
(80,480,cs),
(54,344,o),
(133,247,o),
(272,247,cs),
(330,247,o),
(400,286,o),
(442,340,c),
(400,148,o),
(310,13,o),
(226,13,cs),
(143,13,o),
(96,92,o),
(110,204,c),
(67,204,l),
(37,50,l),
(78,9,o),
(154,-20,o),
(220,-20,cs)
);
},
{
closed = 1;
nodes = (
(190,281,o),
(146,371,o),
(171,499,cs),
(192,606,o),
(268,681,o),
(356,681,cs),
(443,681,o),
(486,582,o),
(459,443,cs),
(440,348,o),
(365,281,o),
(278,281,cs)
);
}
);
width = 600;
},
{
associatedMasterId = m01;
background = {
shapes = (
{
closed = 1;
nodes = (
(402,292,o),
(500,360,o),
(500,455,cs),
(500,514,o),
(402,717,o),
(264,717,cs),
(137,717,o),
(47,621,o),
(47,485,cs),
(47,372,o),
(137,292,o),
(264,292,cs)
);
},
{
closed = 1;
nodes = (
(395,-15,o),
(476,82,o),
(501,261,cs),
(512,338,o),
(489,383,o),
(458,374,cs),
(423,364,o),
(406,340,o),
(405,300,cs),
(397,118,o),
(354,18,o),
(282,18,cs),
(209,18,o),
(155,60,o),
(128,137,cs),
(114,176,o),
(108,195,o),
(98,195,cs),
(89,195,o),
(83,172,o),
(83,129,cs),
(83,106,ls),
(83,72,o),
(93,46,o),
(122,27,cs),
(166,0,o),
(216,-15,o),
(268,-15,cs)
);
},
{
closed = 1;
nodes = (
(198,326,o),
(144,404,o),
(144,514,cs),
(144,615,o),
(189,686,o),
(253,686,cs),
(385,686,o),
(403,546,o),
(403,428,cs),
(403,368,o),
(350,326,o),
(275,326,cs)
);
},
{
closed = 1;
nodes = (
(254,692,o),
(277,692,o),
(314,671,cs),
(362,643,o),
(395,574,o),
(404,439,cs),
(407,390,o),
(426,365,o),
(458,374,cs),
(492,383,o),
(510,408,o),
(506,448,cs),
(489,584,o),
(419,682,o),
(321,709,cs),
(284,720,o),
(262,713,o),
(258,702,cs)
);
}
);
};
layerId = "56A3732B-1DD7-4BEB-B4BC-0CAEBE52DB7C";
name = "27. Dez. 23, 09:53";
shapes = (
{
closed = 1;
nodes = (
(393,287,o),
(501,355,o),
(501,450,cs),
(501,527,o),
(397,712,o),
(275,712,cs),
(148,712,o),
(48,616,o),
(48,480,cs),
(48,367,o),
(128,287,o),
(255,287,cs)
);
},
{
closed = 1;
nodes = (
(424,-20,o),
(510,119,o),
(510,369,c),
(408,369,l),
(408,140,o),
(363,13,o),
(283,13,cs),
(213,13,o),
(149,74,o),
(122,184,c),
(94,184,l),
(94,50,l),
(148,5,o),
(217,-20,o),
(269,-20,cs)
);
},
{
closed = 1;
nodes = (
(186,321,o),
(145,394,o),
(145,509,cs),
(145,615,o),
(197,681,o),
(264,681,cs),
(356,681,o),
(404,581,o),
(404,423,cs),
(404,360,o),
(345,321,o),
(266,321,cs)
);
},
{
closed = 1;
nodes = (
(264,681,l),
(363,681,o),
(408,600,o),
(408,369,c),
(510,369,l),
(510,589,o),
(432,712,o),
(275,712,c)
);
}
);
width = 600;
}
);
unicode = 57;
},
{
glyphname = period;
lastChange = "2023-12-29 21:36:44 +0000";
layers = (
{
layerId = m01;
shapes = (
{
closed = 1;
nodes = (
(187,-14,o),
(214,13,o),
(214,47,cs),
(214,81,o),
(187,108,o),
(154,108,cs),
(119,108,o),
(92,81,o),
(92,47,cs),
(92,13,o),
(119,-14,o),
(154,-14,cs)
);
}
);
width = 286;
}
);
unicode = 46;
},
{
glyphname = comma;
lastChange = "2023-12-29 21:36:44 +0000";
layers = (
{
background = {
shapes = (
{
closed = 1;
nodes = (
(147,-132,o),
(163,-109,o),
(178,-65,cs),
(186,-42,ls),
(199,-5,o),
(198,18,o),
(182,28,cs),
(168,37,o),
(151,13,o),
(139,-33,cs),
(132,-58,ls),
(122,-95,o),
(124,-116,o),
(136,-125,cs)
);
}
);
};
layerId = m01;
shapes = (
{
closed = 1;
nodes = (
(209,22,l),
(169,37,l),
(49,-170,l),
(75,-174,l)
);
},
{
closed = 1;
nodes = (
(187,-14,o),
(214,13,o),
(214,47,cs),
(214,81,o),
(187,108,o),
(154,108,cs),
(119,108,o),
(92,81,o),
(92,47,cs),
(92,13,o),
(119,-14,o),
(154,-14,cs)
);
}
);
width = 286;
}
);
unicode = 44;
},
{
glyphname = colon;
lastChange = "2023-12-29 21:36:44 +0000";
layers = (
{
layerId = m01;
shapes = (
{
closed = 1;
nodes = (
(201,356,o),
(233,383,o),
(240,417,cs),
(247,451,o),
(225,478,o),
(192,478,cs),
(157,478,o),
(125,451,o),
(118,417,cs),
(111,383,o),
(133,356,o),
(168,356,cs)
);
},
{
closed = 1;
nodes = (
(129,-14,o),
(161,13,o),
(168,47,cs),
(175,81,o),
(153,108,o),
(120,108,cs),
(85,108,o),
(53,81,o),
(46,47,cs),
(39,13,o),
(61,-14,o),
(96,-14,cs)
);
}
);
width = 286;
}
);
unicode = 58;
},
{
glyphname = semicolon;
lastChange = "2023-12-29 21:36:44 +0000";
layers = (
{
layerId = m01;
shapes = (
{
closed = 1;
nodes = (
(164,22,l),
(127,37,l),
(-34,-170,l),
(-8,-174,l)
);
},
{
closed = 1;
nodes = (
(135,-14,o),
(167,13,o),
(174,47,cs),
(180,81,o),
(158,108,o),
(125,108,cs),
(90,108,o),
(58,81,o),
(52,47,cs),
(45,13,o),
(67,-14,o),
(102,-14,cs)
);
},
{
closed = 1;
nodes = (
(204,356,o),
(236,383,o),
(243,417,cs),
(249,451,o),
(227,478,o),
(194,478,cs),
(159,478,o),
(127,451,o),
(121,417,cs),
(114,383,o),
(136,356,o),
(171,356,cs)
);
}
);
width = 286;
}
);
unicode = 59;
},
{
glyphname = exclam;
lastChange = "2023-12-29 21:36:44 +0000";
layers = (
{
layerId = m01;
shapes = (
{
closed = 1;
nodes = (
(195,221,l),
(313,722,l),
(210,708,l),
(135,209,l)
);
},
{
closed = 1;
nodes = (
(155,-14,o),
(188,13,o),
(194,47,cs),
(201,81,o),
(179,108,o),
(146,108,cs),
(111,108,o),
(79,81,o),
(72,47,cs),
(66,13,o),
(87,-14,o),
(122,-14,cs)
);
}
);
width = 346;
}
);
unicode = 33;
},
{
glyphname = exclamdown;
lastChange = "2023-12-29 21:36:44 +0000";
layers = (
{
layerId = m01;
shapes = (
{
closed = 1;
nodes = (
(156,8,l),
(231,507,l),
(171,495,l),
(53,-6,l)
);
},
{
closed = 1;
nodes = (
(255,608,o),
(287,635,o),
(294,669,cs),
(300,703,o),
(279,730,o),
(244,730,cs),
(211,730,o),
(178,703,o),
(172,669,cs),
(165,635,o),
(187,608,o),
(220,608,cs)
);
}
);
width = 346;
}
);
unicode = 161;
},
{
glyphname = question;
lastChange = "2023-12-29 21:36:44 +0000";
layers = (
{
layerId = m01;
shapes = (
{
closed = 1;
nodes = (
(287,246,l),
(290,266,ls),
(322,428,o),
(495,447,o),
(513,539,cs),
(534,649,o),
(456,716,o),
(327,716,cs),
(250,716,o),
(169,694,o),
(129,662,c),
(101,518,l),
(129,518,l),
(173,614,o),
(252,682,o),
(320,682,cs),
(395,682,o),
(440,637,o),
(427,574,cs),
(407,467,o),
(232,417,o),
(195,230,cs),
(194,223,l)
);
},
{
closed = 1;
nodes = (
(223,-14,o),
(255,13,o),
(262,47,cs),
(269,81,o),
(247,108,o),
(214,108,cs),
(179,108,o),
(147,81,o),
(140,47,cs),
(133,13,o),
(155,-14,o),
(190,-14,cs)
);
}
);
width = 560;
}
);
unicode = 63;
},
{
glyphname = questiondown;
lastChange = "2023-12-29 21:36:44 +0000";
layers = (
{
layerId = m01;
shapes = (
{
closed = 1;
nodes = (
(316,-18,o),
(397,4,o),
(437,36,c),
(465,180,l),
(437,180,l),
(393,84,o),
(314,16,o),
(246,16,cs),
(171,16,o),
(126,61,o),
(139,124,cs),
(159,231,o),
(334,281,o),
(371,468,cs),
(372,475,l),
(279,452,l),
(276,432,ls),
(244,270,o),
(71,251,o),
(53,159,cs),
(32,49,o),
(110,-18,o),
(239,-18,cs)
);
},
{
closed = 1;
nodes = (
(387,590,o),
(419,617,o),
(426,651,cs),
(433,685,o),
(411,712,o),
(376,712,cs),
(343,712,o),
(311,685,o),
(304,651,cs),
(297,617,o),
(319,590,o),
(352,590,cs)
);
}
);
width = 600;
}
);
unicode = 191;
},
{
glyphname = periodcentered;
lastChange = "2023-12-29 21:36:44 +0000";
layers = (
{
layerId = m01;
shapes = (
{
closed = 1;
nodes = (
(343,264,o),
(373,294,o),
(373,332,cs),
(373,369,o),
(343,399,o),
(305,399,cs),
(269,399,o),
(239,369,o),
(239,332,cs),
(239,294,o),
(269,264,o),
(305,264,cs)
);
}
);
width = 600;
}
);
unicode = 183;
},
{
glyphname = bullet;
lastChange = "2023-12-29 21:36:44 +0000";
layers = (
{
layerId = m01;
shapes = (
{
closed = 1;
nodes = (
(398,83,o),
(478,163,o),
(478,264,cs),
(478,362,o),
(398,442,o),
(297,442,cs),
(202,442,o),
(122,362,o),
(122,264,cs),
(122,163,o),
(202,83,o),
(297,83,cs)
);
}
);
width = 600;
}
);
unicode = 8226;
},
{
glyphname = asterisk;
lastChange = "2023-12-29 21:36:44 +0000";
layers = (
{
layerId = m01;
shapes = (
{
closed = 1;
nodes = (
(253,398,l),
(244,513,l),
(342,454,l),
(373,504,l),
(268,555,l),
(373,604,l),
(342,665,l),
(244,600,l),
(253,711,l),
(191,711,l),
(196,600,l),
(92,668,l),
(63,610,l),
(176,555,l),
(63,499,l),
(93,446,l),
(196,511,l),
(191,398,l)
);
}
);
width = 460;
}
);
unicode = 42;
},
{
glyphname = numbersign;
lastChange = "2023-12-29 21:36:44 +0000";
layers = (
{
layerId = m01;
shapes = (
{
closed = 1;
nodes = (
(132,5,l),
(180,200,l),
(349,200,l),
(301,-2,l),
(372,5,l),
(416,200,l),
(520,200,l),
(553,267,l),
(432,267,l),
(472,442,l),
(561,442,l),
(600,512,l),
(485,512,l),
(535,734,l),
(455,701,l),
(412,512,l),
(249,512,l),
(305,734,l),
(226,701,l),
(182,512,l),
(75,512,l),
(40,442,l),
(167,442,l),
(123,267,l),
(38,267,l),
(11,200,l),
(109,200,l),
(59,-2,l)
);
},
{
closed = 1;
nodes = (
(236,438,l),
(403,438,l),
(363,269,l),
(194,269,l)
);
}
);
width = 600;
}
);
unicode = 35;
},
{
glyphname = slash;
lastChange = "2023-12-29 21:36:44 +0000";
layers = (
{
layerId = m01;
shapes = (
{
closed = 1;
nodes = (
(112,-149,l),
(404,808,l),
(329,808,l),
(37,-149,l)
);
}
);
width = 420;
}
);
unicode = 47;
},
{
glyphname = backslash;
lastChange = "2023-12-29 21:36:44 +0000";
layers = (
{
layerId = m01;
shapes = (
{
closed = 1;
nodes = (
(466,-135,l),
(196,738,l),
(144,711,l),
(394,-163,l)
);
}
);
width = 600;
}
);
unicode = 92;
},
{
glyphname = hyphen;
lastChange = "2023-12-29 21:36:44 +0000";
layers = (
{
layerId = m01;
shapes = (
{
closed = 1;
nodes = (
(375,247,l),
(375,329,l),
(55,329,l),
(55,247,l)
);
}
);
width = 430;
}
);
unicode = 45;
},
{
glyphname = endash;
lastChange = "2023-12-29 21:36:44 +0000";
layers = (
{
layerId = m01;
shapes = (
{
closed = 1;
nodes = (
(535,247,l),
(535,329,l),
(65,329,l),
(65,247,l)
);
}
);
width = 600;
}
);
unicode = 8211;
},
{
glyphname = emdash;
lastChange = "2023-12-29 21:36:44 +0000";
layers = (
{
layerId = m01;
shapes = (
{
closed = 1;
nodes = (
(535,247,l),
(535,329,l),
(0,329,l),
(0,247,l)
);
}
);
width = 535;
}
);
unicode = 8212;
},
{
glyphname = underscore;
lastChange = "2023-12-29 21:36:44 +0000";
layers = (
{
layerId = m01;
shapes = (
{
closed = 1;
nodes = (
(600,-163,l),
(600,-81,l),
(0,-81,l),
(0,-163,l)
);
}
);
width = 600;
}
);
unicode = 95;
},
{
glyphname = parenleft;
lastChange = "2023-12-29 21:36:44 +0000";
layers = (
{
layerId = m01;
shapes = (
{
closed = 1;
nodes = (
(219,-142,l),
(172,-36,o),
(148,125,o),
(177,275,cs),
(207,428,o),
(295,593,o),
(387,704,c),
(331,726,l),
(226,597,o),
(141,422,o),
(112,274,cs),
(84,129,o),
(100,-37,o),
(153,-158,c)
);
}
);
width = 360;
}
);
unicode = 40;
},
{
glyphname = parenright;
lastChange = "2023-12-29 21:36:44 +0000";
layers = (
{
layerId = m01;
shapes = (
{
closed = 1;
nodes = (
(176,-37,o),
(256,129,o),
(284,274,cs),
(313,422,o),
(296,597,o),
(241,726,c),
(177,704,l),
(225,593,o),
(250,428,o),
(220,275,cs),
(191,125,o),
(104,-36,o),
(15,-142,c),
(75,-158,l)
);
}
);
width = 360;
}
);
unicode = 41;
},
{
glyphname = braceleft;
lastChange = "2023-12-29 21:36:44 +0000";
layers = (
{
layerId = m01;
shapes = (
{
closed = 1;
nodes = (
(375,-92,l),
(308,-92,o),
(256,-57,o),
(264,-16,cs),
(300,173,ls),
(309,215,o),
(294,256,o),
(265,279,c),
(302,302,o),
(333,343,o),
(342,385,cs),
(378,574,ls),
(386,615,o),
(452,650,o),
(519,650,c),
(529,702,l),
(429,702,o),
(328,641,o),
(315,574,cs),
(279,385,ls),
(270,339,o),
(211,297,o),
(155,297,c),
(149,261,l),
(205,261,o),
(246,219,o),
(237,173,cs),
(201,-16,ls),
(188,-83,o),
(265,-144,o),
(365,-144,c)
);
}
);
width = 600;
}
);
unicode = 123;
},
{
glyphname = braceright;
lastChange = "2023-12-29 21:36:44 +0000";
layers = (
{
layerId = m01;
shapes = (
{
closed = 1;
nodes = (
(170,-144,o),
(271,-83,o),
(284,-16,cs),
(320,173,ls),
(329,219,o),
(388,261,o),
(444,261,c),
(450,297,l),
(394,297,o),
(353,339,o),
(362,385,cs),
(398,574,ls),
(411,641,o),
(334,702,o),
(234,702,c),
(224,650,l),
(291,650,o),
(343,615,o),
(335,574,cs),
(299,385,ls),
(290,343,o),
(305,302,o),
(334,279,c),
(297,256,o),
(266,215,o),
(257,173,cs),
(221,-16,ls),
(213,-57,o),
(147,-92,o),
(80,-92,c),
(70,-144,l)
);
}
);
width = 600;
}
);
unicode = 125;
},
{
glyphname = bracketleft;
lastChange = "2023-12-29 21:36:44 +0000";
layers = (
{
layerId = m01;
shapes = (
{
closed = 1;
nodes = (
(240,-137,l),
(247,-102,l),
(105,-102,l),
(253,660,l),
(395,660,l),
(402,695,l),
(200,695,l),
(38,-137,l)
);
}
);
width = 440;
}
);
unicode = 91;
},
{
glyphname = bracketright;
lastChange = "2023-12-29 21:36:44 +0000";
layers = (
{
layerId = m01;
shapes = (
{
closed = 1;
nodes = (
(240,-137,l),
(402,695,l),
(200,695,l),
(193,660,l),
(335,660,l),
(187,-102,l),
(45,-102,l),
(38,-137,l)
);
}
);
width = 440;
}
);
unicode = 93;
},
{
glyphname = quotedblleft;
lastChange = "2023-12-29 21:36:44 +0000";
layers = (
{
layerId = m01;
shapes = (
{
closed = 1;
nodes = (
(432,727,l),
(406,731,l),
(322,542,l),
(362,527,l)
);
},
{
closed = 1;
nodes = (
(222,456,o),
(249,483,o),
(249,517,cs),
(249,551,o),
(222,578,o),
(187,578,cs),
(154,578,o),
(127,551,o),
(127,517,cs),
(127,483,o),
(154,456,o),
(187,456,cs)
);
},
{
closed = 1;
nodes = (
(242,727,l),
(216,731,l),
(132,542,l),
(172,527,l)
);
},
{
closed = 1;
nodes = (
(412,456,o),
(439,483,o),
(439,517,cs),
(439,551,o),
(412,578,o),
(377,578,cs),
(344,578,o),
(317,551,o),
(317,517,cs),
(317,483,o),
(344,456,o),
(377,456,cs)
);
}
);
width = 600;
}
);
unicode = 8220;
},
{
glyphname = quotedblright;
lastChange = "2023-12-29 21:36:44 +0000";
layers = (
{
layerId = m01;
shapes = (
{
closed = 1;
nodes = (
(451,630,l),
(411,645,l),
(341,445,l),
(367,441,l)
);
},
{
closed = 1;
nodes = (
(261,630,l),
(221,645,l),
(151,445,l),
(177,441,l)
);
},
{
closed = 1;
nodes = (
(239,594,o),
(266,621,o),
(266,655,cs),
(266,689,o),
(239,716,o),
(206,716,cs),
(171,716,o),
(144,689,o),
(144,655,cs),
(144,621,o),
(171,594,o),
(206,594,cs)
);
},
{
closed = 1;
nodes = (
(429,594,o),
(456,621,o),
(456,655,cs),
(456,689,o),
(429,716,o),
(396,716,cs),
(361,716,o),
(334,689,o),
(334,655,cs),
(334,621,o),
(361,594,o),
(396,594,cs)
);
}
);
width = 600;
}
);
unicode = 8221;
},
{
glyphname = quoteleft;
lastChange = "2023-12-29 21:36:44 +0000";
layers = (
{
layerId = m01;
shapes = (
{
closed = 1;
nodes = (
(254,727,l),
(228,731,l),
(144,542,l),
(184,527,l)
);
},
{
closed = 1;
nodes = (
(234,456,o),
(261,483,o),
(261,517,cs),
(261,551,o),
(234,578,o),
(199,578,cs),
(166,578,o),
(139,551,o),
(139,517,cs),
(139,483,o),
(166,456,o),
(199,456,cs)
);
}
);
width = 400;
}
);
unicode = 8216;
},
{
glyphname = quoteright;
lastChange = "2023-12-29 21:36:44 +0000";
layers = (
{
layerId = m01;
shapes = (
{
closed = 1;
nodes = (
(356,630,l),
(316,645,l),
(246,445,l),
(272,441,l)
);
},
{
closed = 1;
nodes = (
(334,594,o),
(361,621,o),
(361,655,cs),
(361,689,o),
(334,716,o),
(301,716,cs),
(266,716,o),
(239,689,o),
(239,655,cs),
(239,621,o),
(266,594,o),
(301,594,cs)
);
}
);
width = 600;
}
);
unicode = 8217;
},
{
glyphname = guillemetleft;
lastChange = "2023-12-29 21:36:44 +0000";
layers = (
{
layerId = m01;
shapes = (
{
closed = 1;
nodes = (
(543,79,l),
(395,276,l),
(543,469,l),
(497,509,l),
(288,276,l),
(497,43,l)
);
},
{
closed = 1;
nodes = (
(312,79,l),
(164,276,l),
(312,469,l),
(266,509,l),
(57,276,l),
(266,43,l)
);
}
);
width = 600;
}
);
unicode = 171;
},
{
glyphname = guillemetright;
lastChange = "2023-12-29 21:36:44 +0000";
layers = (
{
layerId = m01;
shapes = (
{
closed = 1;
nodes = (
(543,276,l),
(334,509,l),
(288,469,l),
(436,276,l),
(288,79,l),
(334,43,l)
);
},
{
closed = 1;
nodes = (
(312,276,l),
(103,509,l),
(57,469,l),
(205,276,l),
(57,79,l),
(103,43,l)
);
}
);
width = 600;
}
);
unicode = 187;
},
{
glyphname = guilsinglleft;
lastChange = "2023-12-29 21:36:44 +0000";
layers = (
{
layerId = m01;
shapes = (
{
closed = 1;
nodes = (
(327,79,l),
(179,276,l),
(327,469,l),
(281,509,l),
(72,276,l),
(281,43,l)
);
}
);
width = 400;
}
);
unicode = 8249;
},
{
glyphname = guilsinglright;
lastChange = "2023-12-29 21:36:44 +0000";
layers = (
{
layerId = m01;
shapes = (
{
closed = 1;
nodes = (
(327,276,l),
(118,509,l),
(72,469,l),
(220,276,l),
(72,79,l),
(118,43,l)
);
}
);
width = 400;
}
);
unicode = 8250;
},
{
glyphname = quotedbl;
lastChange = "2023-12-29 21:36:44 +0000";
layers = (
{
layerId = m01;
shapes = (
{
closed = 1;
nodes = (
(390,443,l),
(471,630,l),
(359,630,l),
(364,443,l)
);
},
{
closed = 1;
nodes = (
(180,443,l),
(261,630,l),
(149,630,l),
(154,443,l)
);
},
{
closed = 1;
nodes = (
(232,594,o),
(264,621,o),
(271,655,cs),
(277,689,o),
(256,716,o),
(223,716,cs),
(188,716,o),
(155,689,o),
(149,655,cs),
(142,621,o),
(164,594,o),
(199,594,cs)
);
},
{
closed = 1;
nodes = (
(442,594,o),
(474,621,o),
(481,655,cs),
(487,689,o),
(466,716,o),
(433,716,cs),
(398,716,o),
(365,689,o),
(359,655,cs),
(352,621,o),
(374,594,o),
(409,594,cs)
);
}
);
width = 600;
}
);
unicode = 34;
},
{
glyphname = quotesingle;
lastChange = "2023-12-29 21:36:44 +0000";
layers = (
{
layerId = m01;
shapes = (
{
closed = 1;
nodes = (
(128,443,l),
(209,630,l),
(97,630,l),
(102,443,l)
);
},
{
closed = 1;
nodes = (
(180,594,o),
(212,621,o),
(219,655,cs),
(225,689,o),
(204,716,o),
(171,716,cs),
(136,716,o),
(103,689,o),
(97,655,cs),
(90,621,o),
(112,594,o),
(147,594,cs)
);
}
);
width = 286;
}
);
unicode = 39;
},
{
glyphname = baht;
lastChange = "2023-12-29 21:36:44 +0000";
layers = (
{
layerId = m01;
shapes = (
{
closed = 1;
nodes = (
(230,0,ls),
(393,0,o),
(525,89,o),
(550,215,cs),
(564,288,o),
(517,345,o),
(431,369,c),
(504,402,o),
(558,462,o),
(572,537,cs),
(591,632,o),
(518,700,o),
(396,700,cs),
(76,700,l),
(72,680,l),
(157,650,l),
(41,50,l),
(-56,20,l),
(-60,0,l)
);
},
{
closed = 1;
nodes = (
(192,341,l),
(296,341,ls),
(394,341,o),
(452,277,o),
(434,187,cs),
(419,107,o),
(351,50,o),
(270,50,cs),
(136,50,l)
);
},
{
closed = 1;
nodes = (
(233,-100,l),
(407,800,l),
(367,800,l),
(193,-100,l)
);
},
{
closed = 1;
nodes = (
(252,650,l),
(356,650,ls),
(431,650,o),
(473,590,o),
(456,505,cs),
(442,432,o),
(391,381,o),
(334,381,cs),
(200,381,l)
);
}
);
width = 600;
}
);
unicode = 3647;
},
{
glyphname = at;
lastChange = "2023-12-29 21:36:44 +0000";
layers = (
{
associatedMasterId = m01;
layerId = "64256756-86B2-4B21-ADC9-3CB4C17202DE";
name = "23. Dez. 23, 20:17";
shapes = (
{
closed = 1;
nodes = (
(458,471,o),
(401,487,o),
(339,487,cs),
(248,487,o),
(184,406,o),
(184,292,cs),
(184,187,o),
(248,113,o),
(339,113,cs),
(375,113,o),
(427,152,o),
(465,206,c),
(441,226,l),
(410,179,o),
(368,145,o),
(339,145,cs),
(283,145,o),
(244,206,o),
(244,292,cs),
(244,387,o),
(283,455,o),
(339,455,cs),
(385,455,o),
(418,431,o),
(418,397,c),
(418,185,l),
(418,142,o),
(464,112,o),
(529,112,cs),
(609,112,o),
(666,187,o),
(666,292,cs),
(666,506,o),
(531,658,o),
(339,658,cs),
(150,658,o),
(17,506,o),
(17,292,cs),
(17,81,o),
(150,-68,o),
(339,-68,cs),
(416,-68,o),
(519,-22,o),
(588,43,c),
(575,58,l),
(507,-4,o),
(409,-48,o),
(339,-48,cs),
(162,-48,o),
(37,93,o),
(37,292,cs),
(37,495,o),
(162,638,o),
(339,638,cs),
(519,638,o),
(646,495,o),
(646,292,cs),
(646,205,o),
(597,144,o),
(528,144,cs),
(499,144,o),
(478,161,o),
(478,185,c),
(478,448,l)
);
}
);
width = 600;
},
{
layerId = m01;
name = Regular;
shapes = (
{
closed = 1;
nodes = (
(515,-118,o),
(624,-72,o),
(681,-7,c),
(658,19,l),
(605,-41,o),
(506,-83,o),
(419,-83,cs),
(234,-83,o),
(103,58,o),
(103,258,cs),
(103,442,o),
(234,573,o),
(419,573,cs),
(579,573,o),
(692,455,o),
(692,288,cs),
(692,178,o),
(644,96,o),
(582,96,cs),
(535,96,o),
(509,115,o),
(514,135,cs),
(569,398,l),
(555,421,o),
(493,437,o),
(419,437,cs),
(316,437,o),
(235,349,o),
(209,225,cs),
(189,130,o),
(237,63,o),
(339,63,cs),
(384,63,o),
(437,102,o),
(467,156,c),
(471,178,l),
(431,131,o),
(380,105,o),
(357,105,cs),
(310,105,o),
(277,166,o),
(293,242,cs),
(312,335,o),
(361,401,o),
(399,401,cs),
(441,401,o),
(487,379,o),
(487,379,c),
(436,135,ls),
(427,93,o),
(465,63,o),
(559,63,cs),
(660,63,o),
(732,156,o),
(732,288,cs),
(732,475,o),
(602,608,o),
(419,608,cs),
(210,608,o),
(63,463,o),
(63,258,cs),
(63,38,o),
(210,-118,o),
(419,-118,cs)
);
}
);
width = 800;
}
);
unicode = 64;
},
{
glyphname = ampersand;
lastChange = "2023-12-29 21:36:44 +0000";
layers = (
{
layerId = m01;
shapes = (
{
closed = 1;
nodes = (
(462,-16,o),
(635,139,o),
(677,357,c),
(636,357,l),
(597,156,o),
(448,14,o),
(305,14,cs),
(214,14,o),
(172,89,o),
(193,195,cs),
(235,413,o),
(554,388,o),
(594,594,cs),
(608,665,o),
(557,716,o),
(456,716,cs),
(330,716,o),
(242,650,o),
(224,556,cs),
(208,475,o),
(227,412,o),
(333,273,cs),
(464,100,o),
(580,-16,o),
(599,-16,c),
(779,92,l),
(759,111,l),
(654,61,l),
(656,61,o),
(535,177,o),
(406,348,cs),
(313,470,o),
(304,513,o),
(317,584,cs),
(329,644,o),
(371,686,o),
(440,686,cs),
(492,686,o),
(519,636,o),
(505,566,cs),
(469,379,o),
(142,423,o),
(94,175,cs),
(72,63,o),
(145,-16,o),
(289,-16,cs)
);
}
);
width = 830;
}
);
unicode = 38;
},
{
glyphname = paragraph;
lastChange = "2023-12-29 21:36:44 +0000";
layers = (
{
layerId = m01;
shapes = (
{
closed = 1;
nodes = (
(317,-166,l),
(489,717,l),
(415,697,l),
(243,-186,l)
);
},
{
closed = 1;
nodes = (
(187,-166,l),
(359,717,l),
(273,637,l),
(113,-186,l)
);
},
{
closed = 1;
nodes = (
(499,275,l),
(548,425,l),
(258,425,ls),
(186,425,o),
(145,476,o),
(159,547,cs),
(169,600,o),
(216,637,o),
(273,637,c),
(359,717,l),
(220,717,o),
(106,634,o),
(83,517,cs),
(55,375,o),
(104,275,o),
(199,275,cs)
);
}
);
width = 600;
}
);
unicode = 182;
},
{
glyphname = section;
lastChange = "2023-12-29 21:36:44 +0000";
layers = (
{
layerId = m01;
shapes = (
{
closed = 1;
nodes = (
(421,14,o),
(511,102,o),
(535,227,cs),
(565,377,o),
(274,522,o),
(289,601,cs),
(299,653,o),
(346,690,o),
(403,690,cs),
(441,690,o),
(483,673,o),
(505,650,c),
(499,549,l),
(546,549,l),
(572,678,l),
(532,706,o),
(464,726,o),
(410,726,cs),
(299,726,o),
(208,658,o),
(190,563,cs),
(166,442,o),
(473,327,o),
(444,179,cs),
(430,104,o),
(374,51,o),
(325,51,cs),
(262,51,o),
(199,100,o),
(172,170,c),
(156,161,l),
(188,75,o),
(255,14,o),
(318,14,cs)
);
},
{
closed = 1;
nodes = (
(330,-225,o),
(421,-157,o),
(439,-62,cs),
(463,59,o),
(156,174,o),
(185,322,cs),
(199,397,o),
(255,450,o),
(304,450,cs),
(369,450,o),
(432,400,o),
(456,330,c),
(473,340,l),
(441,426,o),
(374,487,o),
(311,487,cs),
(208,487,o),
(118,399,o),
(94,274,cs),
(65,125,o),
(355,-21,o),
(340,-100,cs),
(330,-152,o),
(283,-189,o),
(226,-189,cs),
(188,-189,o),
(145,-172,o),
(125,-148,c),
(132,-38,l),
(85,-38,l),
(57,-177,l),
(97,-205,o),
(165,-225,o),
(219,-225,cs)
);
}
);
width = 639;
}
);
unicode = 167;
},
{
glyphname = copyright;
lastChange = "2023-12-29 21:36:44 +0000";
layers = (
{
layerId = m01;
shapes = (
{
closed = 1;
nodes = (
(598,-84,o),
(770,88,o),
(770,301,cs),
(770,514,o),
(598,686,o),
(385,686,cs),
(172,686,o),
(0,514,o),
(0,301,cs),
(0,88,o),
(172,-84,o),
(385,-84,cs)
);
},
{
closed = 1;
nodes = (
(439,60,o),
(505,78,o),
(552,104,c),
(552,201,l),
(507,201,l),
(507,134,o),
(478,106,o),
(410,106,cs),
(311,106,o),
(241,192,o),
(241,342,cs),
(241,443,o),
(299,493,o),
(383,493,cs),
(455,493,o),
(507,452,o),
(507,398,c),
(552,398,l),
(552,495,l),
(505,521,o),
(440,539,o),
(397,539,cs),
(263,538,o),
(170,438,o),
(170,298,cs),
(170,159,o),
(263,60,o),
(397,60,cs)
);
},
{
closed = 1;
nodes = (
(192,-48,o),
(36,108,o),
(36,301,cs),
(36,494,o),
(192,650,o),
(385,650,cs),
(578,650,o),
(734,494,o),
(734,301,cs),
(734,108,o),
(578,-48,o),
(385,-48,cs)
);
}
);
width = 770;
}
);
unicode = 169;
},
{
glyphname = registered;
lastChange = "2023-12-29 21:36:45 +0000";
layers = (
{
layerId = m01;
shapes = (
{
closed = 1;
nodes = (
(427,292,o),
(530,395,o),
(530,522,cs),
(530,649,o),
(427,752,o),
(300,752,cs),
(173,752,o),
(70,649,o),
(70,522,cs),
(70,395,o),
(173,292,o),
(300,292,cs)
);
},
{
closed = 1;
nodes = (
(190,324,o),
(102,412,o),
(102,522,cs),
(102,632,o),
(190,720,o),
(300,720,cs),
(410,720,o),
(498,632,o),
(498,522,cs),
(498,412,o),
(410,324,o),
(300,324,cs)
);
},
{
closed = 1;
nodes = (
(308,417,l),
(308,434,l),
(272,444,l),
(272,512,l),
(303,512,l),
(364,417,l),
(433,417,l),
(433,434,l),
(416,439,ls),
(405,442,o),
(392,447,o),
(386,456,cs),
(340,519,l),
(371,529,o),
(390,553,o),
(390,583,cs),
(390,615,o),
(358,638,o),
(312,638,cs),
(208,638,l),
(208,621,l),
(229,612,l),
(229,444,l),
(208,434,l),
(208,417,l)
);
},
{
closed = 1;
nodes = (
(272,612,l),
(301,612,ls),
(331,612,o),
(342,602,o),
(342,573,cs),
(342,545,o),
(325,534,o),
(302,534,cs),
(272,534,l)
);
}
);
width = 600;
}
);
unicode = 174;
},
{
glyphname = trademark;
lastChange = "2023-12-29 21:36:44 +0000";
layers = (
{
layerId = m01;
shapes = (
{
closed = 1;
nodes = (
(368,669,l),
(368,533,l),
(353,526,l),
(353,515,l),
(434,515,l),
(434,526,l),
(408,533,l),
(408,675,l),
(436,683,l),
(436,698,l),
(353,698,l),
(311,592,l),
(254,698,l),
(188,698,l),
(188,683,l),
(213,675,l),
(213,533,l),
(188,526,l),
(188,515,l),
(255,515,l),
(255,526,l),
(239,533,l),
(239,643,l),
(305,511,l)
);
},
{
closed = 1;
nodes = (
(151,515,l),
(151,526,l),
(115,533,l),
(115,680,l),
(141,680,l),
(162,626,l),
(176,626,l),
(168,698,l),
(23,698,l),
(15,626,l),
(31,626,l),
(51,680,l),
(75,680,l),
(75,533,l),
(40,526,l),
(40,515,l)
);
}
);
width = 451;
}
);
unicode = 8482;
},
{
glyphname = degree;
lastChange = "2023-12-29 21:36:44 +0000";
layers = (
{
layerId = m01;
shapes = (
{
closed = 1;
nodes = (
(383,389,o),
(451,457,o),
(451,540,cs),
(451,623,o),
(383,691,o),
(300,691,cs),
(217,691,o),
(149,623,o),
(149,540,cs),
(149,457,o),
(217,389,o),
(300,389,cs)
);
},
{
closed = 1;
nodes = (
(244,438,o),
(198,484,o),
(198,540,cs),
(198,596,o),
(244,642,o),
(300,642,cs),
(356,642,o),
(402,596,o),
(402,540,cs),
(402,484,o),
(356,438,o),
(300,438,cs)
);
}
);
width = 600;
}
);
unicode = 176;
},
{
glyphname = bar;
lastChange = "2023-12-29 21:36:44 +0000";
layers = (
{
layerId = m01;
shapes = (
{
closed = 1;
nodes = (
(100,-166,l),
(272,717,l),
(192,667,l),
(20,-216,l)
);
}
);
width = 292;
}
);
unicode = 124;
},
{
glyphname = brokenbar;
lastChange = "2023-12-29 21:36:44 +0000";
layers = (
{
layerId = m01;
shapes = (
{
closed = 1;
nodes = (
(197,334,l),
(272,717,l),
(192,667,l),
(118,284,l)
);
},
{
closed = 1;
nodes = (
(100,-166,l),
(174,217,l),
(95,167,l),
(20,-216,l)
);
}
);
width = 600;
}
);
unicode = 166;
},
{
glyphname = dagger;
lastChange = "2023-12-29 21:36:44 +0000";
layers = (
{
layerId = m01;
shapes = (
{
closed = 1;
nodes = (
(306,331,l),
(355,584,l),
(443,584,l),
(488,644,l),
(367,644,l),
(384,733,l),
(304,733,l),
(287,644,l),
(200,644,l),
(151,584,l),
(275,584,l),
(226,331,l)
);
}
);
width = 600;
}
);
unicode = 8224;
},
{
glyphname = daggerdbl;
lastChange = "2023-12-29 21:36:44 +0000";
layers = (
{
layerId = m01;
shapes = (
{
closed = 1;
nodes = (
(306,331,l),
(323,417,l),
(411,417,l),
(455,477,l),
(334,477,l),
(355,584,l),
(443,584,l),
(488,644,l),
(367,644,l),
(384,733,l),
(304,733,l),
(287,644,l),
(200,644,l),
(151,584,l),
(275,584,l),
(254,477,l),
(167,477,l),
(119,417,l),
(243,417,l),
(226,331,l)
);
}
);
width = 600;
}
);
unicode = 8225;
},
{
glyphname = cent;
lastChange = "2023-12-29 21:36:44 +0000";
layers = (
{
layerId = m01;
shapes = (
{
closed = 1;
nodes = (
(297,91,o),
(370,110,o),
(428,138,c),
(448,243,l),
(411,243,l),
(397,170,o),
(339,118,o),
(270,118,cs),
(169,118,o),
(120,233,o),
(152,396,cs),
(173,505,o),
(247,582,o),
(331,582,cs),
(417,582,o),
(467,530,o),
(453,457,c),
(490,457,l),
(510,562,l),
(464,590,o),
(397,609,o),
(350,609,cs),
(207,608,o),
(84,500,o),
(55,348,cs),
(25,197,o),
(107,91,o),
(250,91,cs)
);
},
{
closed = 1;
nodes = (
(233,-100,l),
(407,800,l),
(367,800,l),
(193,-100,l)
);
}
);
width = 524;
}
);
unicode = 162;
},
{
glyphname = currency;
lastChange = "2023-12-29 21:36:44 +0000";
layers = (
{
layerId = m01;
shapes = (
{
closed = 1;
nodes = (
(200,102,o),
(320,102,o),
(408,176,cs),
(497,250,o),
(521,370,o),
(460,445,cs),
(401,519,o),
(281,519,o),
(192,445,cs),
(104,370,o),
(80,250,o),
(140,176,cs)
);
},
{
closed = 1;
nodes = (
(190,187,l),
(162,223,l),
(53,132,l),
(82,97,l)
);
},
{
closed = 1;
nodes = (
(479,133,l),
(405,223,l),
(363,188,l),
(437,98,l)
);
},
{
closed = 1;
nodes = (
(138,266,o),
(155,353,o),
(221,409,cs),
(286,463,o),
(375,464,o),
(418,409,cs),
(463,354,o),
(445,266,o),
(380,211,cs),
(314,156,o),
(226,156,o),
(182,211,cs)
);
},
{
closed = 1;
nodes = (
(238,432,l),
(164,522,l),
(122,487,l),
(196,397,l)
);
},
{
closed = 1;
nodes = (
(548,488,l),
(519,523,l),
(411,433,l),
(439,397,l)
);
}
);
width = 600;
}
);
unicode = 164;
},
{
glyphname = dollar;
lastChange = "2023-12-29 21:36:44 +0000";
layers = (
{
layerId = m01;
shapes = (
{
closed = 1;
nodes = (
(358,-16,o),
(467,66,o),
(490,183,cs),
(523,357,o),
(188,442,o),
(214,574,cs),
(226,637,o),
(288,682,o),
(363,682,cs),
(431,682,o),
(471,614,o),
(478,518,c),
(518,518,l),
(546,662,l),
(519,694,o),
(446,716,o),
(369,716,cs),
(240,716,o),
(134,639,o),
(113,529,cs),
(79,355,o),
(424,250,o),
(402,139,cs),
(388,68,o),
(319,18,o),
(233,18,cs),
(155,18,o),
(111,92,o),
(107,197,c),
(66,197,l),
(23,44,l),
(72,8,o),
(156,-16,o),
(227,-16,cs)
);
},
{
closed = 1;
nodes = (
(233,-100,l),
(407,800,l),
(367,800,l),
(193,-100,l)
);
}
);
width = 600;
}
);
unicode = 36;
},
{
glyphname = euro;
lastChange = "2023-12-29 21:36:44 +0000";
layers = (
{
layerId = m01;
shapes = (
{
closed = 1;
nodes = (
(411,-15,o),
(493,13,o),
(559,52,c),
(588,200,l),
(550,200,l),
(530,97,o),
(463,24,o),
(387,24,cs),
(266,24,o),
(212,186,o),
(257,415,cs),
(286,568,o),
(376,676,o),
(473,676,cs),
(572,676,o),
(628,603,o),
(608,500,c),
(646,500,l),
(675,648,l),
(625,687,o),
(553,715,o),
(501,715,cs),
(328,713,o),
(176,561,o),
(134,347,cs),
(93,135,o),
(186,-15,o),
(359,-15,cs)
);
},
{
closed = 1;
nodes = (
(403,287,l),
(414,347,l),
(54,347,l),
(43,287,l)
);
},
{
closed = 1;
nodes = (
(426,407,l),
(438,467,l),
(78,467,l),
(66,407,l)
);
}
);
width = 672;
}
);
unicode = 8364;
},
{
glyphname = hryvnia;
lastChange = "2023-12-29 21:36:44 +0000";
layers = (
{
layerId = m01;
shapes = (
{
closed = 1;
nodes = (
(312,-16,o),
(393,6,o),
(432,38,c),
(460,182,l),
(432,182,l),
(389,86,o),
(309,18,o),
(241,18,cs),
(166,18,o),
(122,63,o),
(134,126,cs),
(146,185,o),
(244,234,o),
(282,286,c),
(147,286,l),
(108,251,o),
(59,213,o),
(51,171,cs),
(30,61,o),
(106,-16,o),
(235,-16,cs)
);
},
{
closed = 1;
nodes = (
(531,253,l),
(544,318,l),
(44,318,l),
(31,253,l)
);
},
{
closed = 1;
nodes = (
(555,376,l),
(568,441,l),
(68,441,l),
(55,376,l)
);
},
{
closed = 1;
nodes = (
(435,414,l),
(474,449,o),
(523,487,o),
(531,529,cs),
(552,639,o),
(476,716,o),
(347,716,cs),
(270,716,o),
(189,694,o),
(150,662,c),
(122,518,l),
(150,518,l),
(193,614,o),
(273,682,o),
(341,682,cs),
(416,682,o),
(460,637,o),
(448,574,cs),
(436,515,o),
(338,466,o),
(300,414,c)
);
}
);
width = 600;
},
{
associatedMasterId = m01;
layerId = "0E46F006-6230-4FF2-8CC4-AF8DEB0000FA";
name = "24. Dez. 23, 14:01";
shapes = (
{
closed = 1;
nodes = (
(50,376,l),
(550,376,l),
(550,441,l),
(50,441,l)
);
},
{
closed = 1;
nodes = (
(50,253,l),
(550,253,l),
(550,318,l),
(50,318,l)
);
},
{
closed = 1;
nodes = (
(393,414,l),
(453,463,o),
(496,535,o),
(496,587,cs),
(496,663,o),
(417,716,o),
(306,716,cs),
(217,716,o),
(132,694,o),
(99,662,c),
(99,518,l),
(127,518,l),
(152,614,o),
(218,682,o),
(286,682,cs),
(349,682,o),
(394,625,o),
(394,544,cs),
(394,506,o),
(363,452,o),
(318,414,c)
);
},
{
closed = 1;
nodes = (
(189,285,l),
(129,236,o),
(86,164,o),
(86,112,cs),
(86,36,o),
(165,-17,o),
(276,-17,cs),
(365,-17,o),
(450,5,o),
(483,37,c),
(483,181,l),
(455,181,l),
(430,85,o),
(364,17,o),
(296,17,cs),
(233,17,o),
(188,74,o),
(188,155,cs),
(188,193,o),
(219,247,o),
(264,285,c)
);
}
);
width = 600;
}
);
unicode = 8372;
},
{
glyphname = ruble;
lastChange = "2023-12-29 21:36:44 +0000";
layers = (
{
layerId = m01;
shapes = (
{
closed = 1;
nodes = (
(280,0,l),
(284,20,l),
(186,50,l),
(245,354,l),
(279,354,ls),
(450,354,o),
(563,388,o),
(590,527,cs),
(610,628,o),
(530,700,o),
(396,700,cs),
(126,700,l),
(122,680,l),
(207,650,l),
(91,50,l),
(-6,20,l),
(-10,0,l)
);
},
{
closed = 1;
nodes = (
(523,181,l),
(536,246,l),
(38,246,l),
(25,181,l)
);
},
{
closed = 1;
nodes = (
(547,304,l),
(560,369,l),
(62,369,l),
(49,304,l)
);
},
{
closed = 1;
nodes = (
(302,650,l),
(356,650,ls),
(443,650,o),
(492,586,o),
(474,495,cs),
(456,400,o),
(397,369,o),
(312,369,cs),
(248,369,l)
);
}
);
width = 600;
}
);
unicode = 8381;
},
{
glyphname = rupeeIndian;
lastChange = "2023-12-29 21:36:44 +0000";
layers = (
{
layerId = m01;
shapes = (
{
closed = 1;
nodes = (
(162,300,ls),
(313,300,o),
(439,394,o),
(464,527,cs),
(484,628,o),
(404,700,o),
(270,700,c),
(230,650,l),
(317,650,o),
(366,586,o),
(348,495,cs),
(330,404,o),
(269,340,o),
(200,340,cs),
(56,340,l),
(48,300,l)
);
},
{
closed = 1;
nodes = (
(476,0,l),
(480,19,l),
(434,35,ls),
(404,45,o),
(387,61,o),
(377,91,cs),
(290,336,l),
(185,316,l),
(305,0,l)
);
},
{
closed = 1;
nodes = (
(587,512,l),
(600,577,l),
(102,577,l),
(89,512,l)
);
},
{
closed = 1;
nodes = (
(611,635,l),
(624,700,l),
(126,700,l),
(113,635,l)
);
}
);
width = 600;
}
);
unicode = 8377;
},
{
glyphname = sheqel;
lastChange = "2023-12-29 21:36:44 +0000";
layers = (
{
layerId = m01;
shapes = (
{
closed = 1;
nodes = (
(379,5,o),
(497,14,o),
(536,25,c),
(669,706,l),
(575,686,l),
(452,55,l),
(351,55,ls),
(266,55,o),
(212,129,o),
(229,221,cs),
(282,494,l),
(199,474,l),
(138,161,ls),
(121,74,o),
(180,5,o),
(271,5,cs)
);
},
{
closed = 1;
nodes = (
(25,20,l),
(148,651,l),
(249,651,ls),
(334,651,o),
(388,577,o),
(371,485,cs),
(318,212,l),
(401,232,l),
(462,545,ls),
(479,632,o),
(420,701,o),
(329,701,cs),
(221,701,o),
(103,692,o),
(64,681,c),
(-69,0,l)
);
}
);
width = 600;
}
);
unicode = 8362;
},
{
glyphname = sterling;
lastChange = "2023-12-29 21:36:44 +0000";
layers = (
{
layerId = m01;
shapes = (
{
closed = 1;
nodes = (
(221,469,l),
(246,600,o),
(288,683,o),
(362,683,cs),
(444,683,o),
(474,611,o),
(482,543,c),
(523,543,l),
(552,693,l),
(534,707,o),
(478,715,o),
(397,715,cs),
(250,715,o),
(158,608,o),
(124,437,c)
);
},
{
closed = 1;
nodes = (
(361,0,l),
(370,50,l),
(39,50,l),
(-58,20,l),
(-61,0,l)
);
},
{
closed = 1;
nodes = (
(139,50,l),
(221,469,l),
(124,437,l),
(49,50,l)
);
},
{
closed = 1;
nodes = (
(314,323,l),
(326,383,l),
(7,383,l),
(-7,323,l)
);
},
{
closed = 1;
nodes = (
(426,0,l),
(499,197,l),
(481,204,l),
(370,50,l),
(361,0,l)
);
}
);
width = 530;
}
);
unicode = 163;
},
{
glyphname = yen;
lastChange = "2023-12-29 21:36:44 +0000";
layers = (
{
layerId = m01;
shapes = (
{
closed = 1;
nodes = (
(630,650,l),
(568,650,l),
(368,390,l),
(273,650,l),
(159,650,l),
(304,251,l)
);
},
{
closed = 1;
nodes = (
(411,0,l),
(415,19,l),
(327,50,l),
(232,50,l),
(135,20,l),
(131,0,l)
);
},
{
closed = 1;
nodes = (
(552,181,l),
(565,246,l),
(67,246,l),
(54,181,l)
);
},
{
closed = 1;
nodes = (
(327,50,l),
(389,373,l),
(294,373,l),
(232,50,l)
);
},
{
closed = 1;
nodes = (
(576,304,l),
(589,369,l),
(91,369,l),
(78,304,l)
);
},
{
closed = 1;
nodes = (
(273,650,l),
(373,681,l),
(377,700,l),
(78,700,l),
(74,680,l),
(159,650,l)
);
},
{
closed = 1;
nodes = (
(630,650,l),
(730,681,l),
(734,700,l),
(487,700,l),
(483,680,l),
(568,650,l)
);
}
);
width = 666;
}
);
unicode = 165;
},
{
glyphname = plus;
lastChange = "2023-12-29 21:36:44 +0000";
layers = (
{
layerId = m01;
shapes = (
{
closed = 1;
nodes = (
(550,246,l),
(550,316,l),
(50,316,l),
(50,246,l)
);
},
{
closed = 1;
nodes = (
(334,28,l),
(334,528,l),
(264,528,l),
(264,28,l)
);
}
);
width = 600;
}
);
unicode = 43;
},
{
glyphname = minus;
lastChange = "2023-12-29 21:36:44 +0000";
layers = (
{
layerId = m01;
shapes = (
{
closed = 1;
nodes = (
(530,246,l),
(530,316,l),
(70,316,l),
(70,246,l)
);
}
);
width = 600;
}
);
unicode = 8722;
},
{
glyphname = multiply;
lastChange = "2023-12-29 21:36:44 +0000";
layers = (
{
layerId = m01;
shapes = (
{
closed = 1;
nodes = (
(504,128,l),
(150,482,l),
(101,432,l),
(454,79,l)
);
},
{
closed = 1;
nodes = (
(501,431,l),
(451,480,l),
(98,127,l),
(147,77,l)
);
}
);
width = 600;
}
);
unicode = 215;
},
{
glyphname = divide;
lastChange = "2023-12-29 21:36:44 +0000";
layers = (
{
layerId = m01;
shapes = (
{
closed = 1;
nodes = (
(530,246,l),
(530,316,l),
(70,316,l),
(70,246,l)
);
},
{
closed = 1;
nodes = (
(327,46,o),
(354,73,o),
(354,107,cs),
(354,141,o),
(327,168,o),
(294,168,cs),
(259,168,o),
(232,141,o),
(232,107,cs),
(232,73,o),
(259,46,o),
(294,46,cs)
);
},
{
closed = 1;
nodes = (
(327,388,o),
(354,415,o),
(354,449,cs),
(354,483,o),
(327,510,o),
(294,510,cs),
(259,510,o),
(232,483,o),
(232,449,cs),
(232,415,o),
(259,388,o),
(294,388,cs)
);
}
);
width = 600;
}
);
unicode = 247;
},
{
glyphname = equal;
lastChange = "2023-12-29 21:36:44 +0000";
layers = (
{
layerId = m01;
shapes = (
{
closed = 1;
nodes = (
(530,346,l),
(530,416,l),
(70,416,l),
(70,346,l)
);
},
{
closed = 1;
nodes = (
(530,145,l),
(530,215,l),
(70,215,l),
(70,145,l)
);
}
);
width = 600;
}
);
unicode = 61;
},
{
glyphname = notequal;
lastChange = "2023-12-29 21:36:44 +0000";
layers = (
{
layerId = m01;
shapes = (
{
closed = 1;
nodes = (
(501,431,l),
(451,480,l),
(98,127,l),
(147,77,l)
);
},
{
closed = 1;
nodes = (
(530,145,l),
(530,215,l),
(70,215,l),
(70,145,l)
);
},
{
closed = 1;
nodes = (
(530,346,l),
(530,416,l),
(70,416,l),
(70,346,l)
);
}
);
width = 600;
}
);
unicode = 8800;
},
{
glyphname = greater;
lastChange = "2023-12-29 21:36:44 +0000";
layers = (
{
layerId = m01;
shapes = (
{
closed = 1;
nodes = (
(544,247,l),
(544,310,l),
(99,514,l),
(70,446,l),
(447,282,l),
(69,111,l),
(100,45,l)
);
}
);
width = 600;
}
);
unicode = 62;
},
{
glyphname = less;
lastChange = "2023-12-29 21:36:44 +0000";
layers = (
{
layerId = m01;
shapes = (
{
closed = 1;
nodes = (
(544,111,l),
(166,282,l),
(543,446,l),
(514,514,l),
(69,310,l),
(69,247,l),
(513,45,l)
);
}
);
width = 600;
}
);
unicode = 60;
},
{
glyphname = greaterequal;
lastChange = "2023-12-29 21:36:44 +0000";
layers = (
{
layerId = m01;
shapes = (
{
closed = 1;
nodes = (
(530,307,l),
(530,370,l),
(85,534,l),
(56,466,l),
(433,342,l),
(55,211,l),
(86,145,l)
);
},
{
closed = 1;
nodes = (
(530,41,l),
(530,111,l),
(70,111,l),
(70,41,l)
);
}
);
width = 600;
}
);
unicode = 8805;
},
{
glyphname = lessequal;
lastChange = "2023-12-29 21:36:44 +0000";
layers = (
{
layerId = m01;
shapes = (
{
closed = 1;
nodes = (
(530,211,l),
(152,342,l),
(529,466,l),
(500,534,l),
(55,370,l),
(55,307,l),
(499,145,l)
);
},
{
closed = 1;
nodes = (
(515,41,l),
(515,111,l),
(55,111,l),
(55,41,l)
);
}
);
width = 600;
}
);
unicode = 8804;
},
{
glyphname = plusminus;
lastChange = "2023-12-29 21:36:44 +0000";
layers = (
{
layerId = m01;
shapes = (
{
closed = 1;
nodes = (
(540,317,l),
(540,387,l),
(60,387,l),
(60,317,l)
);
},
{
closed = 1;
nodes = (
(535,41,l),
(535,111,l),
(65,111,l),
(65,41,l)
);
},
{
closed = 1;
nodes = (
(334,172,l),
(334,528,l),
(264,528,l),
(264,172,l)
);
}
);
width = 600;
}
);
unicode = 177;
},
{
glyphname = percent;
lastChange = "2023-12-29 21:36:44 +0000";
layers = (
{
layerId = m01;
shapes = (
{
closed = 1;
nodes = (
(167,0,l),
(655,702,l),
(590,702,l),
(101,0,l)
);
},
{
closed = 1;
nodes = (
(632,-16,o),
(680,58,o),
(680,177,cs),
(680,285,o),
(632,353,o),
(556,353,cs),
(478,353,o),
(430,283,o),
(430,172,cs),
(430,56,o),
(478,-16,o),
(556,-16,cs)
);
},
{
closed = 1;
nodes = (
(509,19,o),
(482,62,o),
(482,186,cs),
(482,286,o),
(505,318,o),
(549,318,cs),
(602,318,o),
(628,278,o),
(628,161,cs),
(628,53,o),
(606,19,o),
(563,19,cs)
);
},
{
closed = 1;
nodes = (
(282,348,o),
(330,422,o),
(330,541,cs),
(330,649,o),
(282,717,o),
(206,717,cs),
(128,717,o),
(80,647,o),
(80,536,cs),
(80,420,o),
(128,348,o),
(206,348,cs)
);
},
{
closed = 1;
nodes = (
(159,383,o),
(132,426,o),
(132,550,cs),
(132,650,o),
(155,682,o),
(199,682,cs),
(252,682,o),
(278,642,o),
(278,525,cs),
(278,417,o),
(256,383,o),
(213,383,cs)
);
}
);
width = 760;
}
);
unicode = 37;
},
{
glyphname = perthousand;
lastChange = "2023-12-29 21:36:44 +0000";
layers = (
{
layerId = m01;
shapes = (
{
closed = 1;
nodes = (
(87,0,l),
(575,702,l),
(510,702,l),
(21,0,l)
);
},
{
closed = 1;
nodes = (
(552,-16,o),
(600,58,o),
(600,177,cs),
(600,285,o),
(552,353,o),
(476,353,cs),
(398,353,o),
(350,283,o),
(350,172,cs),
(350,56,o),
(398,-16,o),
(476,-16,cs)
);
},
{
closed = 1;
nodes = (
(429,19,o),
(402,62,o),
(402,186,cs),
(402,286,o),
(425,318,o),
(469,318,cs),
(522,318,o),
(548,278,o),
(548,161,cs),
(548,53,o),
(526,19,o),
(483,19,cs)
);
},
{
closed = 1;
nodes = (
(202,348,o),
(250,422,o),
(250,541,cs),
(250,649,o),
(202,717,o),
(126,717,cs),
(48,717,o),
(0,647,o),
(0,536,cs),
(0,420,o),
(48,348,o),
(126,348,cs)
);
},
{
closed = 1;
nodes = (
(79,383,o),
(52,426,o),
(52,550,cs),
(52,650,o),
(75,682,o),
(119,682,cs),
(172,682,o),
(198,642,o),
(198,525,cs),
(198,417,o),
(176,383,o),
(133,383,cs)
);
},
{
closed = 1;
nodes = (
(852,-16,o),
(900,58,o),
(900,177,cs),
(900,285,o),
(852,353,o),
(776,353,cs),
(698,353,o),
(650,283,o),
(650,172,cs),
(650,56,o),
(698,-16,o),
(776,-16,cs)
);
},
{
closed = 1;
nodes = (
(729,19,o),
(702,62,o),
(702,186,cs),
(702,286,o),
(725,318,o),
(769,318,cs),
(822,318,o),
(848,278,o),
(848,161,cs),
(848,53,o),
(826,19,o),
(783,19,cs)
);
}
);
width = 900;
}
);
unicode = 8240;
},
{
glyphname = lozenge;
lastChange = "2023-12-29 22:28:09 +0000";
layers = (
{
layerId = m01;
shapes = (
{
closed = 1;
nodes = (
(651,0,l),
(787,700,l),
(87,700,l),
(-49,0,l)
);
},
{
closed = 1;
nodes = (
(160,231,o),
(177,251,o),
(184,286,cs),
(191,320,o),
(182,339,o),
(161,339,cs),
(147,339,o),
(135,330,o),
(126,315,c),
(112,245,l),
(120,236,o),
(129,231,o),
(137,231,cs)
);
},
{
closed = 1;
nodes = (
(98,198,o),
(71,207,o),
(57,223,c),
(97,429,l),
(148,429,l),
(133,355,l),
(149,367,o),
(166,373,o),
(182,373,cs),
(226,373,o),
(245,343,o),
(235,289,cs),
(223,231,o),
(187,198,o),
(132,198,cs)
);
},
{
closed = 1;
nodes = (
(257,198,o),
(229,235,o),
(239,287,cs),
(249,337,o),
(291,373,o),
(341,373,cs),
(393,373,o),
(422,337,o),
(412,287,cs),
(402,235,o),
(359,198,o),
(307,198,cs)
);
},
{
closed = 1;
nodes = (
(336,231,o),
(353,251,o),
(360,287,cs),
(367,320,o),
(357,339,o),
(334,339,cs),
(312,339,o),
(297,320,o),
(290,287,cs),
(283,251,o),
(291,231,o),
(313,231,cs)
);
},
{
closed = 1;
nodes = (
(453,429,l),
(503,429,l),
(459,204,l),
(409,204,l)
);
},
{
closed = 1;
nodes = (
(194,428,l),
(216,428,o),
(231,437,o),
(237,453,c),
(209,601,l),
(207,591,l),
(180,591,l),
(164,505,ls),
(162,496,o),
(168,490,o),
(180,490,cs),
(197,490,l),
(190,455,l),
(159,455,ls),
(124,455,o),
(105,470,o),
(109,493,cs),
(128,591,l),
(103,591,l),
(109,623,l),
(134,623,l),
(152,662,l),
(194,662,l),
(186,623,l),
(260,623,l),
(277,511,l),
(329,623,l),
(434,623,l),
(432,611,l),
(441,618,o),
(460,628,o),
(483,628,cs),
(526,628,o),
(544,594,o),
(533,537,cs),
(522,481,o),
(491,450,o),
(446,450,cs),
(424,450,o),
(409,457,o),
(404,466,c),
(390,393,l),
(338,393,l),
(381,615,l),
(288,449,ls),
(266,410,o),
(236,393,o),
(187,393,c)
);
},
{
closed = 1;
nodes = (
(577,231,o),
(588,235,o),
(594,241,c),
(611,327,l),
(605,334,o),
(597,340,o),
(583,340,cs),
(561,340,o),
(546,321,o),
(539,287,cs),
(532,251,o),
(541,231,o),
(564,231,cs)
);
},
{
closed = 1;
nodes = (
(495,198,o),
(477,230,o),
(488,287,cs),
(499,343,o),
(530,374,o),
(575,374,cs),
(597,374,o),
(612,367,o),
(616,355,c),
(631,429,l),
(682,429,l),
(638,204,l),
(587,204,l),
(589,214,l),
(579,204,o),
(561,198,o),
(538,198,cs)
);
},
{
closed = 1;
nodes = (
(457,484,o),
(475,504,o),
(482,538,cs),
(489,574,o),
(478,594,o),
(455,594,cs),
(442,594,o),
(431,588,o),
(424,582,c),
(407,494,l),
(413,487,o),
(421,484,o),
(435,484,cs)
);
},
{
closed = 1;
nodes = (
(553,452,o),
(525,489,o),
(536,541,cs),
(545,591,o),
(587,627,o),
(638,627,cs),
(690,627,o),
(719,591,o),
(710,541,cs),
(699,489,o),
(656,452,o),
(604,452,cs)
);
},
{
closed = 1;
nodes = (
(634,485,o),
(651,505,o),
(658,541,cs),
(664,574,o),
(655,593,o),
(632,593,cs),
(609,593,o),
(593,574,o),
(587,541,cs),
(580,505,o),
(588,485,o),
(611,485,cs)
);
}
);
width = 700;
}
);
unicode = 9674;
},
{
glyphname = dieresiscomb;
lastChange = "2023-12-29 21:36:44 +0000";
layers = (
{
layerId = m01;
shapes = (
{
closed = 1;
nodes = (
(405,640,o),
(427,662,o),
(427,690,cs),
(427,718,o),
(405,740,o),
(378,740,cs),
(349,740,o),
(327,718,o),
(327,690,cs),
(327,662,o),
(349,640,o),
(378,640,cs)
);
},
{
closed = 1;
nodes = (
(223,640,o),
(245,662,o),
(245,690,cs),
(245,718,o),
(223,740,o),
(196,740,cs),
(167,740,o),
(145,718,o),
(145,690,cs),
(145,662,o),
(167,640,o),
(196,640,cs)
);
}
);
width = 600;
}
);
unicode = 776;
},
{
glyphname = dotaccentcomb;
lastChange = "2023-12-29 21:36:44 +0000";
layers = (
{
layerId = m01;
shapes = (
{
closed = 1;
nodes = (
(320,634,o),
(347,661,o),
(347,695,cs),
(347,729,o),
(320,756,o),
(287,756,cs),
(252,756,o),
(225,729,o),
(225,695,cs),
(225,661,o),
(252,634,o),
(287,634,cs)
);
}
);
width = 600;
}
);
unicode = 775;
},
{
glyphname = gravecomb;
lastChange = "2023-12-29 21:36:44 +0000";
layers = (
{
layerId = m01;
shapes = (
{
closed = 1;
nodes = (
(377,641,l),
(258,807,l),
(199,760,l),
(334,605,l)
);
}
);
width = 600;
}
);
unicode = 768;
},
{
glyphname = acutecomb;
lastChange = "2023-12-29 21:36:44 +0000";
layers = (
{
layerId = m01;
shapes = (
{
closed = 1;
nodes = (
(371,760,l),
(312,807,l),
(193,641,l),
(236,605,l)
);
}
);
width = 600;
}
);
unicode = 769;
},
{
glyphname = hungarumlautcomb;
lastChange = "2023-12-29 21:36:44 +0000";
layers = (
{
layerId = m01;
shapes = (
{
closed = 1;
nodes = (
(444,760,l),
(389,807,l),
(277,641,l),
(317,605,l)
);
},
{
closed = 1;
nodes = (
(289,760,l),
(234,807,l),
(122,641,l),
(162,605,l)
);
}
);
width = 600;
}
);
unicode = 779;
},
{
glyphname = circumflexcomb;
lastChange = "2023-12-29 21:36:44 +0000";
layers = (
{
layerId = m01;
shapes = (
{
closed = 1;
nodes = (
(284,726,l),
(391,612,l),
(434,647,l),
(284,809,l),
(134,647,l),
(177,612,l)
);
}
);
width = 600;
}
);
unicode = 770;
},
{
glyphname = caroncomb;
lastChange = "2023-12-29 21:36:44 +0000";
layers = (
{
layerId = m01;
shapes = (
{
closed = 1;
nodes = (
(434,766,l),
(391,800,l),
(284,688,l),
(177,800,l),
(134,766,l),
(284,607,l)
);
}
);
width = 600;
}
);
unicode = 780;
},
{
glyphname = brevecomb;
lastChange = "2023-12-29 21:36:44 +0000";
layers = (
{
layerId = m01;
shapes = (
{
closed = 1;
nodes = (
(384,622,o),
(443,683,o),
(443,781,c),
(386,781,l),
(386,715,o),
(349,674,o),
(289,674,cs),
(229,674,o),
(192,715,o),
(192,781,c),
(132,781,l),
(132,683,o),
(193,622,o),
(289,622,cs)
);
}
);
width = 600;
}
);
unicode = 774;
},
{
glyphname = ringcomb;
lastChange = "2023-12-29 21:36:44 +0000";
layers = (
{
layerId = m01;
shapes = (
{
closed = 1;
nodes = (
(337,607,o),
(377,647,o),
(377,697,cs),
(377,747,o),
(337,787,o),
(287,787,cs),
(237,787,o),
(197,747,o),
(197,697,cs),
(197,647,o),
(237,607,o),
(287,607,cs)
);
},
{
closed = 1;
nodes = (
(262,652,o),
(242,672,o),
(242,697,cs),
(242,722,o),
(262,742,o),
(287,742,cs),
(312,742,o),
(332,722,o),
(332,697,cs),
(332,672,o),
(312,652,o),
(287,652,cs)
);
}
);
width = 600;
}
);
unicode = 778;
},
{
glyphname = tildecomb;
lastChange = "2023-12-29 21:36:44 +0000";
layers = (
{
layerId = m01;
shapes = (
{
closed = 1;
nodes = (
(181,634,l),
(181,670,o),
(190,709,o),
(220,709,cs),
(281,709,o),
(271,634,o),
(351,634,cs),
(445,634,o),
(439,730,o),
(439,764,c),
(389,764,l),
(389,730,o),
(381,689,o),
(350,689,cs),
(304,689,o),
(300,764,o),
(220,764,cs),
(148,764,o),
(131,670,o),
(131,634,c)
);
}
);
width = 600;
}
);
unicode = 771;
},
{
glyphname = macroncomb;
lastChange = "2023-12-29 21:36:44 +0000";
layers = (
{
layerId = m01;
shapes = (
{
closed = 1;
nodes = (
(430,662,l),
(430,718,l),
(141,718,l),
(141,662,l)
);
}
);
width = 600;
}
);
unicode = 772;
},
{
glyphname = commaturnedabovecomb;
lastChange = "2023-12-29 21:36:44 +0000";
layers = (
{
layerId = m01;
shapes = (
{
closed = 1;
nodes = (
(360,776,l),
(344,779,l),
(264,661,l),
(288,652,l)
);
},
{
closed = 1;
nodes = (
(318,609,o),
(334,625,o),
(334,646,cs),
(334,666,o),
(318,682,o),
(297,682,cs),
(277,682,o),
(261,666,o),
(261,646,cs),
(261,625,o),
(277,609,o),
(297,609,cs)
);
}
);
width = 600;
}
);
unicode = 786;
},
{
glyphname = commaaccentcomb;
lastChange = "2023-12-29 21:36:44 +0000";
layers = (
{
layerId = m01;
shapes = (
{
closed = 1;
nodes = (
(369,-134,l),
(345,-125,l),
(273,-249,l),
(289,-252,l)
);
},
{
closed = 1;
nodes = (
(356,-155,o),
(372,-139,o),
(372,-119,cs),
(372,-98,o),
(356,-82,o),
(336,-82,cs),
(315,-82,o),
(299,-98,o),
(299,-119,cs),
(299,-139,o),
(315,-155,o),
(336,-155,cs)
);
}
);
width = 600;
}
);
unicode = 806;
},
{
glyphname = cedillacomb;
lastChange = "2023-12-29 21:36:44 +0000";
layers = (
{
layerId = m01;
shapes = (
{
closed = 1;
nodes = (
(255,-241,o),
(378,-225,o),
(378,-141,cs),
(378,-83,o),
(319,-80,o),
(275,-80,c),
(303,7,l),
(238,7,l),
(201,-108,l),
(238,-102,o),
(316,-106,o),
(316,-141,cs),
(316,-181,o),
(251,-210,o),
(199,-194,c),
(187,-214,l)
);
}
);
width = 600;
}
);
unicode = 807;
},
{
glyphname = ogonekcomb;
lastChange = "2023-12-29 21:36:44 +0000";
layers = (
{
layerId = m01;
shapes = (
{
closed = 1;
nodes = (
(335,-225,o),
(375,-221,o),
(375,-188,cs),
(375,-169,o),
(343,-160,o),
(319,-160,cs),
(293,-160,o),
(277,-140,o),
(277,-108,cs),
(277,-66,o),
(311,-28,o),
(346,1,c),
(292,1,l),
(221,-59,o),
(207,-98,o),
(207,-142,cs),
(207,-183,o),
(249,-225,o),
(290,-225,cs)
);
}
);
width = 600;
}
);
unicode = 808;
},
